<svg width="1920" height="1080" viewBox="0 0 1920 1080" fill="none" xmlns="http://www.w3.org/2000/svg">
<rect width="1920" height="1080" fill="#E5E5E5"/>
<g id="svg" clip-path="url(#clip0_0_1)">
<rect width="1920" height="1080" fill="white"/>
<rect id="Rectangle 29" x="-131" y="-266" width="2156" height="1449" fill="black"/>
<path id="degrade10" d="M1920 1164L-33.0001 1164L-32.999 -11052L1920 -11052L1920 1164Z" fill="url(#paint0_linear_0_1)"/>
<path id="degrade9" d="M1920 1164L-33.0001 1164L-32.999 -11052L1920 -11052L1920 1164Z" fill="url(#paint1_linear_0_1)"/>
<path id="degrade8" d="M1920 1164L-33.0001 1164L-32.999 -11052L1920 -11052L1920 1164Z" fill="url(#paint2_linear_0_1)"/>
<path id="degrade7" d="M1920 1164L-33.0001 1164L-32.999 -11052L1920 -11052L1920 1164Z" fill="url(#paint3_linear_0_1)"/>
<path id="degrade6" d="M1920 1164L-33.0001 1164L-32.999 -11052L1920 -11052L1920 1164Z" fill="url(#paint4_linear_0_1)"/>
<path id="degrade5" d="M1920 1164L-33.0001 1164L-32.999 -11052L1920 -11052L1920 1164Z" fill="url(#paint5_linear_0_1)"/>
<path id="degrade4" d="M1920 1164L-33.0001 1164L-32.999 -11052L1920 -11052L1920 1164Z" fill="url(#paint6_linear_0_1)"/>
<path id="degrade3" d="M1920 1164L-33.0001 1164L-32.999 -11052L1920 -11052L1920 1164Z" fill="url(#paint7_linear_0_1)"/>
<path id="degrade2" d="M1920 1164L-33.0001 1164L-32.999 -11052L1920 -11052L1920 1164Z" fill="url(#paint8_linear_0_1)"/>
<path id="degrade" d="M1920 1164L-33.0001 1164L-32.999 -11052L1920 -11052L1920 1164Z" fill="url(#paint9_linear_0_1)"/>
<g id="main">
<circle id="rond1" cx="971" cy="546" r="618" fill="url(#paint10_linear_0_1)"/>
<circle id="ro_ro1" cx="598.336" cy="93.3361" r="145.913" transform="rotate(135.716 598.336 93.3361)" fill="url(#paint11_linear_0_1)"/>
<circle id="ro_ro2" cx="420.633" cy="371.634" r="145.913" transform="rotate(97.923 420.633 371.634)" fill="url(#paint12_linear_0_1)"/>
<circle id="ro_ro5" cx="1327.33" cy="68.3252" r="145.913" transform="rotate(-143.038 1327.33 68.3252)" fill="url(#paint13_linear_0_1)"/>
<circle id="ro_ro6" cx="1532.21" cy="334.213" r="145.913" transform="rotate(-97.3873 1532.21 334.213)" fill="url(#paint14_linear_0_1)"/>
<circle id="ro_ro7" cx="1538.86" cy="667.865" r="145.913" transform="rotate(-51.8845 1538.86 667.865)" fill="url(#paint15_linear_0_1)"/>
<circle id="ro_ro8" cx="1358.97" cy="976.971" r="145.913" transform="rotate(-38.3672 1358.97 976.971)" fill="url(#paint16_linear_0_1)"/>
<circle id="ro_ro3" cx="420.637" cy="692.637" r="145.913" transform="rotate(66.0071 420.637 692.637)" fill="url(#paint17_linear_0_1)"/>
<circle id="ro_ro4" cx="611.349" cy="978.349" r="145.913" transform="rotate(44.6669 611.349 978.349)" fill="url(#paint18_linear_0_1)"/>
<path id="bleu" d="M-1028.35 1822.5C-866.712 1657.83 41.6652 1126.5 758.239 1126.5C1171.65 1126.5 1345.15 1088 1627.79 1000C1933.98 904.663 2208.26 692.5 2551.27 758C2825.68 810.4 3016.25 308.833 3130.58 112L3446.65 -897C3164.43 -718.667 2449.27 -256.261 2349.57 -215.5C2029.15 -84.5 1840.86 -281.655 1474.16 294C1024.44 1000 -836.836 808.5 -1179.85 758C-1454.26 717.6 1029.26 -163.833 1171.15 -559" stroke="url(#paint19_linear_0_1)" stroke-opacity="0.6" stroke-width="1000" stroke-linecap="round" stroke-linejoin="round"/>
<circle id="rou1" cx="555.001" cy="605.88" r="187" transform="rotate(120.471 555.001 605.88)" fill="url(#paint20_linear_0_1)"/>
<circle id="rou2" cx="1001.44" cy="411.324" r="187" transform="rotate(-159.668 1001.44 411.324)" fill="url(#paint21_linear_0_1)"/>
<circle id="rou3" cx="1417.49" cy="602.324" r="187" transform="rotate(-84.8483 1417.49 602.324)" fill="url(#paint22_linear_0_1)"/>
<circle id="rond2" cx="979.5" cy="539.5" r="500.5" fill="url(#paint23_linear_0_1)"/>
<circle id="rond3" cx="979.5" cy="535.5" r="334.5" fill="url(#paint24_linear_0_1)"/>
<circle id="rond4" cx="980" cy="536" r="187" fill="url(#paint25_linear_0_1)"/>
<path id="ligne2" d="M-1329 451.518C-1267.58 527.345 -1025.75 586.707 -633.966 595.506C-144.237 606.505 -240.38 440.018 367.524 424.02C975.428 408.021 926.355 585.007 1230.81 623.004C1535.26 661.001 1616.32 352.448 2367.5 549.01C2906.3 689.999 3193.39 626.004 3182.71 674" stroke="url(#paint26_linear_0_1)" stroke-width="83" stroke-linecap="round"/>
<path id="ligne4" d="M-736 526.518C-675.678 602.345 -438.193 661.707 -53.4433 670.506C427.494 681.505 333.077 515.018 930.068 499.02C1527.06 483.021 1478.87 660.007 1777.85 698.004C2076.84 736.001 2156.45 427.448 2894.14 624.01C3423.27 764.999 3705.21 701.004 3694.72 749" stroke="url(#paint27_linear_0_1)" stroke-width="83" stroke-linecap="round"/>
<path id="ligne3" d="M-2254 595.518C-2179.08 671.345 -1884.14 730.707 -1406.31 739.506C-809.02 750.505 -926.28 584.018 -184.857 568.02C556.565 552.021 496.714 729.007 868.036 767.004C1239.36 805.001 1338.22 496.448 2254.39 693.01C2911.53 833.999 3261.68 770.004 3248.65 818" stroke="url(#paint28_linear_0_1)" stroke-width="83" stroke-linecap="round"/>
<path id="ligne1" d="M-368.789 645.98C-319.555 569.983 -496.581 516 -182.559 507.181C209.969 496.157 282.214 629.945 769.462 645.98C1256.71 662.014 1023.92 577.333 1565.76 577.332C2221.45 577.332 2203.45 336.784 2826.02 507.181C3243.43 621.427 3256.01 471.103 3247.45 423" stroke="url(#paint29_linear_0_1)" stroke-width="83" stroke-linecap="round"/>
<path id="lignerond" d="M755.411 -980V-37.9998C751.411 13.1669 787.211 115.5 962.411 115.5C1181.41 115.5 1395.91 298.5 1403.41 534C1410.91 769.5 1210.91 995.5 984.911 990C758.911 984.5 532.411 840.5 528.911 534C556.912 238.5 773.719 157.713 868.912 128.5C1235.5 16.0002 1126.5 -500.229 1235.5 -654.5C1518.5 -1063.5 1653 -797 1532.5 -443C1084 -25.5004 1326.95 134.408 1382.41 182.5C1432.25 221.167 1487.11 282.8 1515.91 436C1551.91 627.5 1490.41 910.5 1216.91 1061.5C998.112 1182.3 797.079 1111.83 723.912 1061.5C612.246 1012.17 392.212 833.7 405.412 514.5C421.912 115.5 797.582 21.9678 832.412 7.50024C1246.5 -164.5 1090.5 -427 1259.5 -1156C2245 -1850 1235.5 -716.999 1285.5 -186C1299.59 -36.3951 1681.41 201 1676.91 573.5C1673.31 871.5 1458.41 1084.33 1351.41 1153.5C1176.25 1219.67 769.712 1306.7 544.912 1125.5C263.912 899 263.912 646.5 266.412 465C268.912 283.5 508.393 -14.818 674.413 -84.4998C1235.5 -320 980.667 -1355.5 1102.5 -1372" stroke="url(#paint30_linear_0_1)" stroke-width="83" stroke-linecap="round"/>
<path id="lignezag" d="M-572.5 757C-480.333 687.667 -153 533 183 664C312.667 714.555 674 924.5 873 872C1072 819.501 1231 698 1377 748C1493.8 788 1723.83 651.667 1756 620.5C1795.67 585.167 1863.1 488.4 1815.5 384C1767.9 279.6 1737.5 91.5003 1694 259.5C1650.5 427.5 1644.5 421.5 1616.5 583C1588.5 744.5 1582 1149 1538.5 906.5C1495 664 1377 315.5 1290 297C1203 278.5 1237 975 1143.5 987C1050 999 1078.5 384 963.5 384C848.5 384 941.5 701 854.5 713.5C767.5 726 792.5 508.5 736.5 508.5C680.5 508.5 668 620.5 618 620.5C568 620.5 528 508.5 497 508.5C466 508.5 478.5 605 438 620.5C397.5 636 273.5 549 164.5 508.5C55.5 468 -607 508.5 -607 508.5" stroke="url(#paint31_linear_0_1)" stroke-width="89" stroke-linecap="round" stroke-linejoin="bevel"/>
<path id="lignezig" d="M-572 735.55C-479.833 666.217 -152.5 511.55 183.5 642.55C313.167 693.105 674.5 903.05 873.5 850.55C1072.5 798.05 1231.5 676.55 1377.5 726.55C1494.3 766.55 1724.33 630.217 1756.5 599.05C1796.17 563.717 1863.6 466.95 1816 362.55C1768.4 258.15 1738 70.0501 1694.5 238.05C1651 406.05 1645 400.05 1617 561.55C1589 723.05 1582.5 1127.55 1539 885.05C1495.5 642.55 1377.5 294.05 1290.5 275.55C1203.5 257.05 1237.5 953.55 1144 965.55C1050.5 977.55 1079 362.55 964 362.55C849 362.55 942 679.55 855 692.05C768 704.55 793 487.05 737 487.05C681 487.05 668.5 599.05 618.5 599.05C568.5 599.05 528.5 487.05 497.5 487.05C466.5 487.05 479 583.55 438.5 599.05C398 614.55 274 527.55 165 487.05C56 446.55 -606.5 487.05 -606.5 487.05" stroke="url(#paint32_linear_0_1)" stroke-width="89" stroke-linecap="round" stroke-linejoin="bevel"/>
<circle id="rob8" cx="353.428" cy="266.428" r="111.861" transform="rotate(-178.143 353.428 266.428)" fill="url(#paint33_linear_0_1)"/>
<circle id="rob7" cx="766.355" cy="372.355" r="111.861" transform="rotate(-174.904 766.355 372.355)" fill="url(#paint34_linear_0_1)"/>
<circle id="rob1" cx="376.608" cy="804.608" r="111.861" transform="rotate(-4.67635 376.608 804.608)" fill="url(#paint35_linear_0_1)"/>
<circle id="rob2" cx="669.526" cy="820.526" r="111.861" transform="rotate(1.38203 669.526 820.526)" fill="url(#paint36_linear_0_1)"/>
<circle id="rob3" cx="1198.51" cy="861.507" r="111.861" transform="rotate(-34.4208 1198.51 861.507)" fill="url(#paint37_linear_0_1)"/>
<circle id="rob4" cx="1641.35" cy="818.352" r="111.861" transform="rotate(-29.3789 1641.35 818.352)" fill="url(#paint38_linear_0_1)"/>
<circle id="rob6" cx="1168.9" cy="216.9" r="111.861" transform="rotate(138.505 1168.9 216.9)" fill="url(#paint39_linear_0_1)"/>
<circle id="rob5" cx="1584.47" cy="357.472" r="111.861" transform="rotate(-156.218 1584.47 357.472)" fill="url(#paint40_linear_0_1)"/>
<path id="tin" d="M469 1603L1814 -532" stroke="white" stroke-width="48" stroke-linecap="round"/>
<path id="tan" d="M299 1584L1644 -551" stroke="white" stroke-width="88" stroke-linecap="round"/>
<path id="tun" d="M88 1607L1433 -528" stroke="white" stroke-width="71" stroke-linecap="round"/>
<path id="tin2" d="M1147 1515L2492 -620" stroke="white" stroke-width="48" stroke-linecap="round"/>
<path id="tan2" d="M977 1496L2322 -639" stroke="white" stroke-width="88" stroke-linecap="round"/>
<path id="tun2" d="M766 1519L2111 -616" stroke="white" stroke-width="71" stroke-linecap="round"/>
<path id="tin1" d="M37 1424L1382 -711" stroke="white" stroke-width="48" stroke-linecap="round"/>
<path id="tan1" d="M-133 1405L1212 -730" stroke="white" stroke-width="88" stroke-linecap="round"/>
<path id="tun1" d="M-344 1428L1001 -707" stroke="white" stroke-width="71" stroke-linecap="round"/>
<path id="alg2" d="M611.638 1250C694 1098.14 551.379 987.898 611.637 767.98C647.099 638.561 700.658 524.094 611.638 343.893C522.617 163.692 694 123.975 694 -164" stroke="url(#paint41_linear_0_1)" stroke-width="68" stroke-linecap="round"/>
<path id="alg5" d="M1626.64 1285C1709 1125.51 1566.38 1009.74 1626.64 778.777C1662.1 642.859 1715.66 522.644 1626.64 333.395C1537.62 144.146 1709 102.434 1709 -200" stroke="url(#paint42_linear_0_1)" stroke-width="68" stroke-linecap="round"/>
<path id="alg4" d="M1299.02 1246C1387.33 954.449 1197.73 844.675 1243.14 668.8C1309.49 411.751 1363.64 422.102 1331.45 284.589C1287.18 95.5031 1196.74 36.7118 1331.45 -161" stroke="url(#paint43_linear_0_1)" stroke-width="68" stroke-linecap="round"/>
<path id="alg3" d="M975.016 1285C1063.33 993.242 873.732 883.389 919.135 707.389C985.494 450.159 1039.64 460.517 1007.45 322.906C963.18 133.685 872.735 74.8523 1007.45 -123" stroke="url(#paint44_linear_0_1)" stroke-width="68" stroke-linecap="round"/>
<path id="alg1" d="M263.754 1334C239.114 1298.96 201.807 1197.4 263.754 977.598C332.989 731.94 150.833 726.318 263.754 454.238C406.771 109.64 132.343 124.82 234.291 -163" stroke="url(#paint45_linear_0_1)" stroke-width="68" stroke-linecap="round"/>
<circle id="eli1" cx="971.802" cy="567.802" r="412" transform="rotate(60 971.802 567.802)" stroke="url(#paint46_linear_0_1)" stroke-width="48"/>
<circle id="eli2" cx="971.302" cy="567.303" r="303.5" transform="rotate(-105 971.302 567.303)" stroke="url(#paint47_linear_0_1)" stroke-width="37"/>
<circle id="eli3" cx="971.301" cy="567.303" r="212.5" transform="rotate(60 971.301 567.303)" stroke="url(#paint48_linear_0_1)" stroke-width="26"/>
<circle id="elib1" cx="971.5" cy="519.5" r="526.711" transform="rotate(60 971.5 519.5)" stroke="url(#paint49_linear_0_1)" stroke-width="76"/>
<circle id="elib2" cx="970.86" cy="518.861" r="388.002" transform="rotate(-105 970.86 518.861)" stroke="url(#paint50_linear_0_1)" stroke-width="51"/>
<circle id="elib3" cx="970.859" cy="518.861" r="271.665" transform="rotate(60 970.859 518.861)" stroke="url(#paint51_linear_0_1)" stroke-width="41"/>
<circle id="eliv1" cx="360.5" cy="342.5" r="241.275" transform="rotate(-105 360.5 342.5)" stroke="url(#paint52_linear_0_1)" stroke-width="94"/>
<circle id="eliv2" cx="361.392" cy="343.393" r="173.051" transform="rotate(60 361.392 343.393)" stroke="url(#paint53_linear_0_1)" stroke-width="45"/>
<circle id="elibb1" cx="1559.5" cy="305.5" r="217.596" transform="rotate(-105 1559.5 305.5)" stroke="url(#paint54_linear_0_1)" stroke-width="63"/>
<circle id="elibb2" cx="1560.19" cy="306.193" r="156.068" transform="rotate(60 1560.19 306.193)" stroke="url(#paint55_linear_0_1)" stroke-width="62"/>
<path id="bigl" d="M-330.5 -236.5C-239.167 -60.8333 154.5 427.2 440.5 396C798 357 770.5 662 972.5 678.5C1174.5 695 1346.5 415.5 1803.5 490C2169.1 549.6 2372.5 747 2321.5 706" stroke="url(#paint56_linear_0_1)" stroke-width="87" stroke-linecap="round"/>
<circle id="elir1" cx="996.5" cy="692.5" r="295.98" transform="rotate(-105 996.5 692.5)" stroke="url(#paint57_linear_0_1)" stroke-width="94"/>
<circle id="elir2" cx="997.596" cy="693.595" r="212.288" transform="rotate(60 997.596 693.595)" stroke="url(#paint58_linear_0_1)" stroke-width="76"/>
<ellipse id="robl3" cx="601.687" cy="420.279" rx="125.5" ry="126" transform="rotate(-15.6766 601.687 420.279)" fill="url(#paint59_linear_0_1)"/>
<circle id="robl4" cx="1016.42" cy="289.422" r="188.5" transform="rotate(-15.6766 1016.42 289.422)" fill="url(#paint60_linear_0_1)"/>
<circle id="robl5" cx="1573.9" cy="368.898" r="263.5" transform="rotate(-15.6766 1573.9 368.898)" fill="url(#paint61_linear_0_1)"/>
<path id="wave" d="M2623.11 1667C2690.08 1549.18 2743.8 1250.23 2422.96 997.048C2021.91 680.571 1703.17 979.05 1265.83 942.552C828.497 906.055 628.297 1052.07 239.271 987.724C-33.831 942.552 -214.826 749.341 -615.575 987.724C-1016.32 1226.11 -1435.5 1386.85 -1595 1460.01" stroke="url(#paint62_linear_0_1)" stroke-width="537" stroke-linecap="round" stroke-linejoin="round"/>
<path id="gauchedroite2" d="M-58 468.518C40.7669 544.345 429.608 603.707 1059.57 612.506C1847.02 623.505 1692.43 457.018 2669.9 441.02C3647.37 425.021 3568.46 602.007 4058 640.004C4547.54 678.001 4677.88 369.448 5885.73 566.01C6752.09 706.999 7213.71 643.004 7196.54 691" stroke="url(#paint63_linear_0_1)" stroke-width="51" stroke-linecap="round"/>
<path id="droitegauche2" d="M-3860.67 682.98C-3778.76 606.983 -4073.27 553 -3550.85 544.181C-2897.83 533.157 -2777.64 666.945 -1967.04 682.98C-1156.43 699.014 -1543.71 614.333 -642.297 614.332C448.527 614.332 418.595 373.784 1454.32 544.181C2148.74 658.427 2169.66 508.103 2155.41 460" stroke="url(#paint64_linear_0_1)" stroke-width="30" stroke-linecap="round"/>
<path id="grosselignelentgd" d="M-153.65 597.98C-79.5424 521.983 -346.009 468 126.671 459.181C717.521 448.157 826.266 581.945 1559.69 597.98C2293.12 614.014 1942.72 529.333 2758.31 529.332C3745.28 529.332 3718.2 288.784 4655.31 459.181C5283.62 573.427 5302.55 423.103 5289.66 375" stroke="url(#paint65_linear_0_1)" stroke-width="83" stroke-linecap="round"/>
<path id="grosselignelentdg" d="M-3287.65 736.98C-3213.54 660.983 -3480.01 607 -3007.33 598.181C-2416.48 587.157 -2307.73 720.945 -1574.31 736.98C-840.879 753.014 -1191.28 668.333 -375.69 668.332C611.281 668.332 584.198 427.784 1521.31 598.181C2149.62 712.427 2168.55 562.103 2155.66 514" stroke="url(#paint66_linear_0_1)" stroke-width="83" stroke-linecap="round"/>
<path id="gauchedroite1" d="M-406 403.518C-318.914 479.345 23.9419 538.707 579.402 547.506C1273.73 558.505 1137.42 392.018 1999.29 376.02C2861.16 360.021 2791.59 537.007 3223.23 575.004C3654.88 613.001 3769.8 304.448 4834.8 501.01C5598.7 641.999 6005.74 578.004 5990.59 626" stroke="url(#paint67_linear_0_1)" stroke-width="35" stroke-linecap="round"/>
<path id="wiwave2" d="M-301.248 1237.96C-389.648 1319.96 -338.082 1678.42 -301.248 1745.75L224.752 1982.75L1221.25 2073.75L2245.25 1939.25V1115.46C2201.75 1097.13 2003.25 1045.25 1905.25 1089.25C1782.75 1144.25 1788.55 1259.64 1699.75 1338.25C1574.94 1448.75 1533.25 1377.05 1357.56 1432.05C1181.87 1487.05 1209.25 1577.16 948.251 1547.75C841.751 1535.75 725.062 1452.05 630.062 1432.05C535.062 1412.05 456.062 1464.05 345.562 1432.05C235.062 1400.05 266.442 1247.96 125.752 1148.25C-11.6235 1050.9 -190.748 1135.46 -301.248 1237.96Z" fill="url(#paint68_linear_0_1)"/>
<path id="wiwave3" d="M-675.712 1376.84C-764.112 1458.84 -254.795 1623.21 -217.962 1690.54L308.039 1927.54L1304.54 2018.54L2328.54 1884.04V1258.25C2285.04 1239.92 2207.29 1119.75 2052.79 1151.25C1921.21 1178.08 1874.79 1147.16 1728.29 1186.75C1567.36 1230.24 1634.98 1321.84 1459.29 1376.84C1283.6 1431.84 1352.79 1406.25 1091.79 1376.84C985.288 1364.84 859.013 1428.43 763.288 1412.25C553.788 1376.84 656.788 1320.75 399.788 1222.25C225.788 1155.56 -52.522 1250.96 -193.212 1151.25C-330.587 1053.89 -565.212 1274.34 -675.712 1376.84Z" fill="url(#paint69_linear_0_1)"/>
<ellipse id="robl1" cx="184.86" cy="903.899" rx="66.5" ry="66" transform="rotate(-15.6766 184.86 903.899)" fill="url(#paint70_linear_0_1)"/>
<circle id="robl2" cx="327.905" cy="658.623" r="87.5" transform="rotate(-15.6766 327.905 658.623)" fill="url(#paint71_linear_0_1)"/>
</g>
<path id="Exclude" fill-rule="evenodd" clip-rule="evenodd" d="M2898 -682H-877V1691H2898V-682ZM811.673 169.857C811.345 159.177 802.46 150.761 791.774 151.008C781.087 151.255 772.6 160.073 772.767 170.757C773.282 203.792 772.432 244.431 769.349 285.14C764.017 281.919 758.141 279.769 751.727 279.059C738.661 277.613 727.183 282.569 718.236 289.203C701.073 301.929 687.505 324.888 677.999 347.925C668.218 371.626 661.367 398.769 659.556 422.959C658.651 435.05 658.951 447.089 661.155 457.914C663.313 468.513 667.677 479.776 676.41 488.118C677.113 488.79 677.866 489.407 678.661 489.967C694.742 501.269 712.329 506.477 729.912 501.31C746.658 496.389 758.663 483.367 767.284 469.17C782.004 444.93 791.767 409.116 798.356 370.704C802.168 386.244 806.468 401.298 811.299 415.505C824.042 452.98 841.414 487.444 865.721 508.424C878.223 519.215 892.957 526.772 909.9 528.786C923.43 530.394 937.264 528.336 951.217 522.914C974.352 536.264 999.062 539.173 1010.5 539.173C1062.93 539.173 1086.25 494.758 1097.97 467.455C1099.18 464.635 1100.33 461.827 1101.42 459.131C1105.48 468.218 1109.82 478.876 1113.84 490.034C1121.42 511.073 1126.96 531.431 1128.06 544.981C1127.02 550.528 1126.51 556.102 1127.06 560.299C1127.15 561.058 1127.39 562.647 1128.02 564.504C1128.33 565.42 1128.96 567.086 1130.16 568.94C1131.22 570.589 1133.87 574.157 1138.87 576.311C1144.86 578.897 1151.02 578.09 1155.6 575.712C1159.4 573.744 1161.55 571.055 1162.44 569.836C1164.27 567.333 1165.08 564.956 1165.31 564.26C1166.38 561.11 1166.75 557.528 1166.95 555.165C1167.14 552.899 1167.2 550.601 1167.17 548.306C1169.79 538.095 1176.5 522.126 1192.23 507.965C1208.88 492.967 1237.33 478.478 1286.22 476.578C1296.96 476.16 1305.32 467.12 1304.9 456.386C1304.49 445.651 1295.44 437.288 1284.7 437.705C1228.3 439.898 1190.68 456.995 1166.18 479.061C1162.08 482.75 1158.4 486.535 1155.09 490.356C1153.6 485.776 1152.04 481.252 1150.45 476.853C1142.14 453.79 1132.11 431.408 1124.61 418.605C1122.79 415.453 1120.42 411.959 1117.3 409.011C1114.16 406.037 1108.82 402.31 1101.42 401.958C1093.76 401.593 1088 405.015 1084.56 407.995C1081.31 410.82 1079.06 414.125 1077.57 416.592C1074.61 421.522 1072.02 427.8 1069.8 433.33C1069.13 435.012 1068.46 436.694 1067.79 438.387C1066.04 442.821 1064.26 447.33 1062.2 452.114C1050.24 479.992 1035.91 500.272 1010.5 500.272C1006.86 500.272 1000.63 499.708 993.374 498.003C1018.46 478.536 1033.72 456.444 1040.59 433.712C1049.59 403.935 1043.44 375.288 1029.55 354.439C1016.09 334.233 993.217 318.771 967.733 321.349C940.659 324.088 920.485 345.868 910.597 379.822C900.615 414.1 899.892 442.345 906.324 465.451C908.937 474.835 912.657 483.108 917.159 490.375C916.248 490.333 915.36 490.259 914.495 490.157C906.661 489.225 898.95 485.708 891.156 478.98C874.871 464.924 860.251 438.582 848.146 402.985C824.194 332.55 813.738 237.144 811.673 169.857ZM761.838 337.039C762.994 341.637 762.917 345.241 762.797 346.313C756.357 391.135 746.719 428.066 734.016 448.984C727.712 459.365 722.344 462.987 718.936 463.988C716.508 464.702 711.601 465.106 702.66 459.241C701.728 457.955 700.329 455.252 699.291 450.155C698.018 443.905 697.631 435.667 698.365 425.862C699.833 406.262 705.566 383.139 713.976 362.759C722.66 341.714 732.886 326.776 741.421 320.447C745.323 317.554 747.17 317.694 747.443 317.724L747.446 317.725C747.637 317.746 750.079 318.012 754.366 323.21C754.574 323.462 754.789 323.71 755.01 323.952C758.572 327.852 760.698 332.505 761.838 337.039ZM1111.18 436.235C1111.2 436.209 1111.21 436.191 1111.22 436.181L1111.23 436.173C1111.23 436.173 1111.21 436.191 1111.18 436.235ZM1003.33 422.465C998.326 439.037 984.871 458.709 955.509 476.991C950.466 471.258 946.343 464.094 943.817 455.022C939.837 440.724 939.398 420.11 947.964 390.694C955.42 365.09 966.444 360.58 971.651 360.053C978.448 359.366 988.941 363.665 997.159 376.001C1004.95 387.696 1008.8 404.375 1003.33 422.465ZM137.394 197.515C137.394 186.773 128.682 178.064 117.935 178.064C107.188 178.064 98.4762 186.773 98.4762 197.515C98.4762 340.05 143.457 443.799 199.15 489.031C227.344 511.93 261.103 521.559 292.396 507.379C322.685 493.655 343.781 460.551 354.68 414.106C376.801 319.84 346.612 244.349 326.714 216.315C320.496 207.553 308.349 205.49 299.584 211.706C290.819 217.922 288.755 230.063 294.974 238.825C308.956 258.524 336.156 322.697 316.791 405.222C307.136 446.365 290.731 465.422 276.328 471.948C262.93 478.019 244.808 475.989 223.691 458.839C180.76 423.972 137.394 334.058 137.394 197.515ZM426.209 340.164C423.722 329.713 413.231 323.256 402.776 325.742C392.321 328.228 385.861 338.715 388.348 349.166C395.292 378.346 406.118 421.392 416.02 455.574C420.93 472.524 425.794 487.934 429.971 498.442C431.865 503.205 434.342 508.886 437.414 513.038C438.281 514.21 439.615 515.845 441.462 517.413C443.165 518.858 446.581 521.345 451.582 522.222C457.465 523.254 463.237 521.65 467.641 518.233C471.371 515.34 473.227 511.87 474.093 509.945C475.26 507.354 476.161 504.239 476.79 501.963C477.517 499.332 478.314 496.164 479.154 492.773C479.444 491.602 479.742 490.39 480.05 489.139C481.564 482.995 483.305 475.926 485.369 468.266C490.402 449.592 496.923 429.107 505.236 413.561C509.389 405.795 513.466 400.274 517.195 396.877C520.753 393.635 523.067 393.113 524.458 393.092C525.971 393.069 529.84 393.599 536.505 398.972C543.22 404.387 551.643 413.851 561.632 429.329C576.974 455.069 590.312 470.875 601.989 479.634C607.875 484.048 614.344 487.434 621.254 488.596C628.354 489.79 636.839 488.645 643.559 482.673C651.591 475.536 652.315 463.242 645.175 455.213C640.283 449.711 632.968 447.64 626.264 449.177C625.987 448.987 625.682 448.769 625.348 448.518C619.558 444.176 609.266 433.291 594.903 409.145C594.786 408.948 594.666 408.754 594.542 408.562C583.248 391.012 572.141 377.725 560.938 368.693C549.645 359.587 537.188 353.993 523.869 354.194C510.428 354.398 499.404 360.45 490.979 368.126C482.724 375.647 476.173 385.388 470.914 395.222C463.25 409.554 457.22 426.233 452.51 441.659C443.096 408.834 432.873 368.167 426.209 340.164ZM1398.79 506.38C1400.29 495.743 1392.89 485.901 1382.25 484.395C1371.61 482.89 1361.76 490.293 1360.25 500.929C1353.74 546.953 1349.92 617.62 1360.04 680.248C1365.09 711.53 1373.82 742.094 1388.39 766.76C1403.13 791.707 1424.55 811.64 1454.61 818.583C1469.21 822.045 1482.23 818.932 1493.21 812.626C1499.7 819.29 1506.89 826.063 1514.83 832.946C1515.03 833.116 1515.23 833.281 1515.43 833.442C1515.62 833.592 1515.81 833.738 1516 833.88C1532.93 846.417 1552.7 848.405 1571.13 843.809C1589.13 839.319 1606.23 828.576 1620.73 814.801C1636.07 800.22 1649.67 781.124 1659.04 759.542C1674.02 788.024 1690.66 813.226 1704.38 830.538C1709.93 837.544 1715.31 843.655 1720.2 848.304C1722.63 850.616 1725.24 852.864 1727.95 854.726C1730.27 856.322 1734.37 858.86 1739.57 859.785C1742.41 860.289 1746.44 860.467 1750.84 858.919C1755.54 857.268 1759.21 854.158 1761.64 850.454C1765.8 844.12 1765.57 837.369 1765.36 834.484C1764.86 827.68 1762.23 819.534 1758.87 811.066C1758.87 811.081 1758.87 811.071 1758.86 811.036C1758.79 810.796 1758.38 809.383 1758.07 806.591C1757.74 803.644 1757.6 799.853 1757.88 795.545C1758.43 786.84 1760.6 776.973 1765.36 768.069C1769.99 759.391 1777.15 751.432 1788.39 745.904C1799.79 740.302 1816.65 736.583 1841.51 738.686C1852.22 739.592 1861.64 731.649 1862.54 720.945C1863.45 710.241 1855.5 700.829 1844.79 699.923C1814.66 697.375 1790.39 701.573 1771.22 710.995C1751.9 720.491 1739.08 734.661 1731.02 749.758C1724.57 761.839 1721.24 774.369 1719.77 785.56C1702.69 760.18 1683.7 725.968 1671.07 691.476C1667.82 682.618 1658.69 677.364 1649.4 679.01C1640.11 680.657 1633.34 688.73 1633.34 698.163C1633.34 731.804 1616.24 765.391 1593.92 786.603C1582.82 797.141 1571.47 803.63 1561.71 806.064C1552.65 808.323 1545.51 807.076 1539.69 803.001C1532.77 796.975 1526.61 791.147 1521.13 785.526C1535.3 765.104 1545.35 738.594 1551.49 715.351C1555.46 700.346 1558.08 685.623 1559.09 673.137C1559.59 666.911 1559.72 660.877 1559.29 655.446C1558.91 650.463 1557.93 644.107 1555.01 638.468C1549.06 626.999 1537.45 624.186 1530.6 623.668C1523.07 623.097 1515.13 624.573 1507.87 626.954C1493.19 631.765 1476.71 641.783 1464.01 656.734C1451.05 671.991 1441.8 692.755 1443.21 718.059C1444.32 737.854 1451.88 758.944 1467.02 781.066C1465.79 781.12 1464.64 780.983 1463.57 780.726L1463.41 780.69C1446.48 776.792 1432.87 765.532 1421.9 746.978C1410.76 728.123 1403.11 702.851 1398.46 674.046C1394.2 647.71 1392.62 619.497 1392.74 592.46C1394.32 593.163 1396.02 593.666 1397.81 593.932C1429.74 598.671 1517.76 598.009 1632.28 562.84C1642.55 559.686 1648.32 548.804 1645.16 538.535C1642.01 528.266 1631.12 522.499 1620.85 525.654C1510.66 559.494 1428.57 559.17 1403.53 555.452C1400.16 554.952 1396.87 555.347 1393.89 556.457C1394.97 538.007 1396.73 520.922 1398.79 506.38ZM1513.86 705.413C1509.28 722.737 1502.86 739.72 1495.36 753.299C1486.16 738.329 1482.63 725.837 1482.07 715.882C1481.29 701.967 1486.19 690.731 1493.68 681.909C1501.43 672.78 1511.69 666.64 1519.99 663.918C1520.12 663.876 1520.25 663.835 1520.38 663.795L1520.62 663.719C1520.59 665.58 1520.48 667.683 1520.3 670.018C1519.51 679.788 1517.36 692.202 1513.86 705.413ZM1527.92 662.486C1527.92 662.486 1527.87 662.483 1527.8 662.471C1527.88 662.479 1527.92 662.486 1527.92 662.486ZM875.278 577.778C875.582 567.04 867.119 558.089 856.377 557.786C845.634 557.483 836.68 565.942 836.376 576.68C835.644 602.594 837.272 642.097 844.839 676.484C848.602 693.585 854.104 710.708 862.374 724.433C870.607 738.096 883.337 751.097 902.145 753.782C913.697 755.432 924.41 752.737 933.177 746.046C941.324 739.828 946.425 731.216 949.779 723.152C952.13 717.5 953.947 711.301 955.37 704.898C962.836 731.878 976.406 761.457 1006.79 781.264C1015.77 787.118 1025.42 791.217 1035.5 791.68C1046.25 792.174 1055.66 788.43 1062.99 781.9C1075.95 770.358 1081.19 751.26 1083.79 735.336C1089.31 701.539 1086.29 657.866 1084.17 635.446C1083.16 624.751 1073.67 616.899 1062.97 617.908C1052.27 618.917 1044.42 628.405 1045.42 639.1C1047.54 661.501 1050.01 700.706 1045.38 729.067C1042.93 744.105 1039.21 750.918 1037.15 752.81C1036.25 752.729 1033.36 752.143 1028.05 748.68C1005.51 733.986 995.959 710.051 989.896 682.374C988.4 675.547 987.163 668.734 985.949 661.893L985.55 659.637C984.49 653.645 983.41 647.54 982.214 641.827C979.694 629.784 975.954 615.342 967.422 604.766C965.59 602.495 961.555 597.845 955.129 595.652C951.344 594.36 946.629 593.904 941.702 595.439C936.952 596.918 933.659 599.733 931.591 602.139C927.934 606.396 926.465 611.28 925.81 613.747C925.006 616.772 924.495 620.002 924.129 622.996C923.398 628.983 922.987 636.327 922.61 643.658C922.554 644.748 922.498 645.846 922.443 646.951C922.109 653.536 921.763 660.367 921.239 667.311C919.974 684.054 917.821 698.655 913.844 708.216C911.911 712.864 910.217 714.625 909.56 715.126C909.557 715.128 909.553 715.133 909.549 715.14C909.495 715.211 909.277 715.504 907.649 715.272C905.137 714.913 900.897 712.966 895.711 704.361C890.564 695.818 886.198 683.353 882.848 668.127C876.188 637.861 874.601 601.76 875.278 577.778ZM963.512 623.447C963.516 623.45 963.49 623.549 963.425 623.725C963.477 623.531 963.509 623.444 963.512 623.447ZM937.173 629.243C936.873 628.933 936.86 628.854 937.128 629.187L937.173 629.243ZM1281.38 629.662C1281.38 628.715 1281.35 627.299 1281.11 625.705L1281.11 625.7C1280.96 624.682 1280.4 620.871 1277.77 617.002C1276.26 614.774 1273.55 611.774 1269.16 609.905C1264.55 607.94 1259.99 608.032 1256.4 608.976C1250.61 610.498 1247.27 614.198 1246.52 615.025L1246.49 615.062C1244.38 617.392 1243.01 619.973 1242.48 620.973C1241.71 622.43 1240.95 624.048 1240.24 625.631C1238.85 628.734 1237.1 632.954 1235.11 637.797C1194.95 631.431 1153.19 638.607 1125.83 657.976C1109.76 669.349 1097.33 686.069 1095.9 707.581C1094.5 728.759 1104.09 750.07 1122.2 770.326C1136.84 786.689 1154.91 794.499 1174.45 789.723C1191.57 785.539 1205.3 772.567 1215.67 759.609C1227.32 745.063 1237.78 726.596 1246.64 708.561C1247.98 718.326 1249.61 727.112 1251.52 734.993C1257.48 759.642 1266.78 778.236 1280.78 788.956C1296.22 800.77 1313.49 800.249 1327.54 794.693C1340.78 789.46 1352.09 779.622 1360.36 770.134C1367.41 762.032 1366.56 749.745 1358.46 742.691C1350.35 735.637 1338.06 736.486 1331 744.588C1325.03 751.449 1318.58 756.404 1313.23 758.518C1308.7 760.309 1306.56 759.689 1304.44 758.07C1300.9 755.359 1294.51 747.186 1289.35 725.848C1284.3 705.003 1281.05 674.152 1281.38 629.808L1281.38 629.662ZM1148.32 689.723C1163.86 678.725 1190.61 672.391 1219.4 675.006C1209.68 696.625 1197.98 719.45 1185.29 735.299C1176.46 746.32 1169.55 750.874 1165.21 751.934C1163.29 752.404 1159.07 753.177 1151.22 744.396C1137.18 728.71 1134.26 717.251 1134.73 710.151C1135.18 703.385 1139 696.32 1148.32 689.723Z" fill="black"/>
<path id="ecole" d="M211.436 903.916H214.736C214.501 905.353 213.973 906.644 213.152 907.788C212.36 908.903 211.304 909.797 209.984 910.472C208.693 911.117 207.197 911.44 205.496 911.44C203.443 911.44 201.595 910.956 199.952 909.988C198.309 908.991 197.004 907.641 196.036 905.94C195.097 904.209 194.628 902.244 194.628 900.044C194.628 897.844 195.083 895.879 195.992 894.148C196.931 892.417 198.207 891.053 199.82 890.056C201.433 889.059 203.252 888.56 205.276 888.56C207.417 888.56 209.221 889.044 210.688 890.012C212.184 890.951 213.284 892.344 213.988 894.192C214.721 896.011 215.015 898.255 214.868 900.924H198.148C198.295 902.361 198.691 903.623 199.336 904.708C199.981 905.793 200.832 906.644 201.888 907.26C202.944 907.847 204.147 908.14 205.496 908.14C206.992 908.14 208.253 907.759 209.28 906.996C210.336 906.204 211.055 905.177 211.436 903.916ZM205.408 891.86C203.589 891.86 202.064 892.388 200.832 893.444C199.6 894.5 198.779 895.937 198.368 897.756H211.26C211.143 895.82 210.512 894.353 209.368 893.356C208.253 892.359 206.933 891.86 205.408 891.86ZM203.516 884.556L208.18 877.472H212.8L206.64 884.556H203.516ZM218.351 903.916H221.607C221.695 905.177 222.164 906.204 223.015 906.996C223.895 907.788 225.156 908.184 226.799 908.184C227.796 908.184 228.574 908.052 229.131 907.788C229.718 907.524 230.143 907.172 230.407 906.732C230.671 906.263 230.803 905.749 230.803 905.192C230.803 904.517 230.627 903.989 230.275 903.608C229.952 903.197 229.498 902.86 228.911 902.596C228.354 902.332 227.708 902.083 226.975 901.848C226.124 901.525 225.244 901.188 224.335 900.836C223.455 900.455 222.619 900.015 221.827 899.516C221.064 898.988 220.448 898.357 219.979 897.624C219.51 896.861 219.275 895.952 219.275 894.896C219.275 894.016 219.451 893.195 219.803 892.432C220.155 891.64 220.654 890.965 221.299 890.408C221.974 889.821 222.751 889.367 223.631 889.044C224.54 888.721 225.538 888.56 226.623 888.56C228.09 888.56 229.322 888.853 230.319 889.44C231.346 890.027 232.123 890.863 232.651 891.948C233.208 893.004 233.502 894.236 233.531 895.644H230.495C230.29 894.324 229.864 893.371 229.219 892.784C228.603 892.168 227.708 891.86 226.535 891.86C225.332 891.86 224.408 892.124 223.763 892.652C223.118 893.18 222.795 893.884 222.795 894.764C222.795 895.409 223.03 895.952 223.499 896.392C223.968 896.803 224.57 897.184 225.303 897.536C226.066 897.859 226.872 898.196 227.723 898.548C228.574 898.9 229.395 899.252 230.187 899.604C230.979 899.956 231.683 900.367 232.299 900.836C232.915 901.305 233.399 901.892 233.751 902.596C234.132 903.271 234.323 904.121 234.323 905.148C234.323 906.38 234.03 907.48 233.443 908.448C232.886 909.387 232.05 910.12 230.935 910.648C229.85 911.176 228.515 911.44 226.931 911.44C225.494 911.44 224.262 911.264 223.235 910.912C222.238 910.531 221.402 910.047 220.727 909.46C220.052 908.844 219.524 908.199 219.143 907.524C218.791 906.849 218.556 906.189 218.439 905.544C218.322 904.899 218.292 904.356 218.351 903.916ZM247.145 911.44C245.414 911.44 243.815 910.956 242.349 909.988C240.911 908.991 239.753 907.641 238.873 905.94C238.022 904.209 237.597 902.244 237.597 900.044C237.597 897.844 238.037 895.879 238.917 894.148C239.797 892.417 240.985 891.053 242.481 890.056C244.006 889.059 245.707 888.56 247.585 888.56C249.638 888.56 251.193 889.088 252.249 890.144C253.334 891.171 254.067 892.549 254.449 894.28C254.859 896.011 255.065 897.932 255.065 900.044C255.065 901.159 254.947 902.376 254.713 903.696C254.478 904.987 254.067 906.233 253.481 907.436C252.923 908.609 252.131 909.577 251.105 910.34C250.078 911.073 248.758 911.44 247.145 911.44ZM248.025 908.096C249.521 908.096 250.753 907.729 251.721 906.996C252.718 906.263 253.451 905.295 253.921 904.092C254.39 902.86 254.625 901.511 254.625 900.044C254.625 898.431 254.375 897.023 253.877 895.82C253.407 894.588 252.674 893.635 251.677 892.96C250.709 892.256 249.491 891.904 248.025 891.904C245.825 891.904 244.123 892.681 242.921 894.236C241.718 895.761 241.117 897.697 241.117 900.044C241.117 901.599 241.41 902.992 241.997 904.224C242.613 905.427 243.434 906.38 244.461 907.084C245.517 907.759 246.705 908.096 248.025 908.096ZM254.625 889H258.145V911H254.933C254.933 911 254.903 910.736 254.845 910.208C254.815 909.68 254.771 909.064 254.713 908.36C254.654 907.656 254.625 907.069 254.625 906.6V889ZM272.196 911.44C270.436 911.44 268.822 910.956 267.356 909.988C265.918 908.991 264.774 907.641 263.924 905.94C263.073 904.209 262.648 902.244 262.648 900.044C262.648 897.844 263.058 895.879 263.88 894.148C264.701 892.417 265.83 891.053 267.268 890.056C268.705 889.059 270.348 888.56 272.196 888.56C273.838 888.56 275.173 888.868 276.2 889.484C277.256 890.071 278.062 890.892 278.62 891.948C279.177 893.004 279.558 894.221 279.764 895.6C279.998 896.979 280.116 898.46 280.116 900.044C280.116 901.159 279.998 902.376 279.764 903.696C279.529 904.987 279.118 906.233 278.532 907.436C277.974 908.609 277.182 909.577 276.156 910.34C275.129 911.073 273.809 911.44 272.196 911.44ZM273.076 908.096C274.572 908.096 275.804 907.729 276.772 906.996C277.769 906.263 278.502 905.295 278.972 904.092C279.441 902.86 279.676 901.511 279.676 900.044C279.676 898.431 279.426 897.023 278.928 895.82C278.458 894.588 277.725 893.635 276.728 892.96C275.76 892.256 274.542 891.904 273.076 891.904C270.876 891.904 269.174 892.681 267.972 894.236C266.769 895.761 266.168 897.697 266.168 900.044C266.168 901.599 266.461 902.992 267.048 904.224C267.664 905.427 268.485 906.38 269.512 907.084C270.568 907.759 271.756 908.096 273.076 908.096ZM279.676 880.2H283.196V911H279.984C279.925 910.355 279.852 909.592 279.764 908.712C279.705 907.832 279.676 907.128 279.676 906.6V880.2ZM299.473 897.492H312.233V900.748H299.473V897.492ZM331.688 903.52V900.22H345.416V903.52H331.688ZM325.88 911L336.748 882.4H340.444L351.4 911H347.616L338.068 885.128H339.124L329.576 911H325.88ZM355.145 889H358.665V911H355.145V889ZM366.233 888.56C367.406 888.56 368.462 888.736 369.401 889.088C370.34 889.44 371.132 889.953 371.777 890.628C372.422 891.303 372.921 892.124 373.273 893.092C373.625 894.031 373.801 895.101 373.801 896.304V911H370.281V897.184C370.281 895.483 369.885 894.207 369.093 893.356C368.301 892.505 367.113 892.08 365.529 892.08C364.326 892.08 363.212 892.388 362.185 893.004C361.158 893.62 360.308 894.471 359.633 895.556C358.988 896.612 358.592 897.844 358.445 899.252L358.401 896.7C358.548 895.468 358.841 894.353 359.281 893.356C359.75 892.359 360.322 891.508 360.997 890.804C361.701 890.071 362.493 889.513 363.373 889.132C364.282 888.751 365.236 888.56 366.233 888.56ZM381.017 888.56C382.19 888.56 383.246 888.736 384.185 889.088C385.124 889.44 385.916 889.953 386.561 890.628C387.206 891.303 387.705 892.124 388.057 893.092C388.409 894.031 388.585 895.101 388.585 896.304V911H385.065V897.184C385.065 895.483 384.669 894.207 383.877 893.356C383.085 892.505 381.897 892.08 380.313 892.08C379.11 892.08 377.996 892.388 376.969 893.004C375.942 893.62 375.092 894.471 374.417 895.556C373.772 896.612 373.376 897.844 373.229 899.252L373.185 896.7C373.332 895.468 373.625 894.353 374.065 893.356C374.534 892.359 375.106 891.508 375.781 890.804C376.485 890.071 377.277 889.513 378.157 889.132C379.066 888.751 380.02 888.56 381.017 888.56ZM398.646 880.2V884.468H394.07V880.2H398.646ZM394.598 889H398.118V911H394.598V889ZM419.706 903.916H423.006C422.771 905.353 422.243 906.644 421.422 907.788C420.63 908.903 419.574 909.797 418.254 910.472C416.963 911.117 415.467 911.44 413.766 911.44C411.712 911.44 409.864 910.956 408.222 909.988C406.579 908.991 405.274 907.641 404.306 905.94C403.367 904.209 402.898 902.244 402.898 900.044C402.898 897.844 403.352 895.879 404.262 894.148C405.2 892.417 406.476 891.053 408.09 890.056C409.703 889.059 411.522 888.56 413.546 888.56C415.687 888.56 417.491 889.044 418.958 890.012C420.454 890.951 421.554 892.344 422.258 894.192C422.991 896.011 423.284 898.255 423.138 900.924H406.418C406.564 902.361 406.96 903.623 407.606 904.708C408.251 905.793 409.102 906.644 410.158 907.26C411.214 907.847 412.416 908.14 413.766 908.14C415.262 908.14 416.523 907.759 417.55 906.996C418.606 906.204 419.324 905.177 419.706 903.916ZM413.678 891.86C411.859 891.86 410.334 892.388 409.102 893.444C407.87 894.5 407.048 895.937 406.638 897.756H419.53C419.412 895.82 418.782 894.353 417.638 893.356C416.523 892.359 415.203 891.86 413.678 891.86ZM427.676 889H431.196V911H427.676V889ZM438.764 888.56C439.938 888.56 440.994 888.736 441.932 889.088C442.871 889.44 443.663 889.953 444.308 890.628C444.954 891.303 445.452 892.124 445.804 893.092C446.156 894.031 446.332 895.101 446.332 896.304V911H442.812V897.184C442.812 895.483 442.416 894.207 441.624 893.356C440.832 892.505 439.644 892.08 438.06 892.08C436.858 892.08 435.743 892.388 434.716 893.004C433.69 893.62 432.839 894.471 432.164 895.556C431.519 896.612 431.123 897.844 430.976 899.252L430.932 896.7C431.079 895.468 431.372 894.353 431.812 893.356C432.282 892.359 432.854 891.508 433.528 890.804C434.232 890.071 435.024 889.513 435.904 889.132C436.814 888.751 437.767 888.56 438.764 888.56ZM450.984 903.916H454.24C454.328 905.177 454.797 906.204 455.648 906.996C456.528 907.788 457.789 908.184 459.432 908.184C460.429 908.184 461.206 908.052 461.764 907.788C462.35 907.524 462.776 907.172 463.04 906.732C463.304 906.263 463.436 905.749 463.436 905.192C463.436 904.517 463.26 903.989 462.908 903.608C462.585 903.197 462.13 902.86 461.544 902.596C460.986 902.332 460.341 902.083 459.608 901.848C458.757 901.525 457.877 901.188 456.968 900.836C456.088 900.455 455.252 900.015 454.46 899.516C453.697 898.988 453.081 898.357 452.612 897.624C452.142 896.861 451.908 895.952 451.908 894.896C451.908 894.016 452.084 893.195 452.436 892.432C452.788 891.64 453.286 890.965 453.932 890.408C454.606 889.821 455.384 889.367 456.264 889.044C457.173 888.721 458.17 888.56 459.256 888.56C460.722 888.56 461.954 888.853 462.952 889.44C463.978 890.027 464.756 890.863 465.284 891.948C465.841 893.004 466.134 894.236 466.164 895.644H463.128C462.922 894.324 462.497 893.371 461.852 892.784C461.236 892.168 460.341 891.86 459.168 891.86C457.965 891.86 457.041 892.124 456.396 892.652C455.75 893.18 455.428 893.884 455.428 894.764C455.428 895.409 455.662 895.952 456.132 896.392C456.601 896.803 457.202 897.184 457.936 897.536C458.698 897.859 459.505 898.196 460.356 898.548C461.206 898.9 462.028 899.252 462.82 899.604C463.612 899.956 464.316 900.367 464.932 900.836C465.548 901.305 466.032 901.892 466.384 902.596C466.765 903.271 466.956 904.121 466.956 905.148C466.956 906.38 466.662 907.48 466.076 908.448C465.518 909.387 464.682 910.12 463.568 910.648C462.482 911.176 461.148 911.44 459.564 911.44C458.126 911.44 456.894 911.264 455.868 910.912C454.87 910.531 454.034 910.047 453.36 909.46C452.685 908.844 452.157 908.199 451.776 907.524C451.424 906.849 451.189 906.189 451.072 905.544C450.954 904.899 450.925 904.356 450.984 903.916ZM489.28 904.356L483.384 908.624L483.076 907.7H496.012V911H479.732V907.7C481.639 906.263 483.325 905.045 484.792 904.048C486.288 903.051 487.549 902.156 488.576 901.364C489.603 900.572 490.38 899.765 490.908 898.944C491.465 898.123 491.744 897.169 491.744 896.084C491.744 895.263 491.583 894.544 491.26 893.928C490.937 893.283 490.439 892.784 489.764 892.432C489.119 892.051 488.268 891.86 487.212 891.86C485.921 891.86 484.807 892.271 483.868 893.092C482.929 893.913 482.46 894.984 482.46 896.304H479.38C479.233 894.837 479.497 893.532 480.172 892.388C480.876 891.215 481.844 890.291 483.076 889.616C484.337 888.912 485.716 888.56 487.212 888.56C488.503 888.56 489.647 888.765 490.644 889.176C491.641 889.557 492.477 890.085 493.152 890.76C493.856 891.435 494.384 892.212 494.736 893.092C495.088 893.972 495.264 894.896 495.264 895.864C495.264 896.744 495.117 897.551 494.824 898.284C494.56 899.017 494.164 899.721 493.636 900.396C493.137 901.071 492.521 901.731 491.788 902.376C491.055 903.021 490.219 903.681 489.28 904.356ZM510.757 911.44C508.88 911.44 507.12 910.985 505.477 910.076C503.835 909.167 502.5 907.861 501.473 906.16C500.476 904.429 499.977 902.391 499.977 900.044C499.977 897.697 500.476 895.673 501.473 893.972C502.5 892.241 503.835 890.907 505.477 889.968C507.12 889.029 508.88 888.56 510.757 888.56C512.635 888.56 514.38 889.029 515.993 889.968C517.636 890.907 518.956 892.241 519.953 893.972C520.951 895.673 521.449 897.697 521.449 900.044C521.449 902.391 520.951 904.429 519.953 906.16C518.956 907.861 517.636 909.167 515.993 910.076C514.38 910.985 512.635 911.44 510.757 911.44ZM510.757 908.052C511.96 908.052 513.104 907.744 514.189 907.128C515.275 906.512 516.169 905.603 516.873 904.4C517.577 903.197 517.929 901.745 517.929 900.044C517.929 898.343 517.577 896.891 516.873 895.688C516.199 894.485 515.304 893.561 514.189 892.916C513.104 892.271 511.96 891.948 510.757 891.948C509.555 891.948 508.396 892.271 507.281 892.916C506.167 893.532 505.257 894.441 504.553 895.644C503.849 896.847 503.497 898.313 503.497 900.044C503.497 901.745 503.849 903.197 504.553 904.4C505.257 905.603 506.167 906.512 507.281 907.128C508.396 907.744 509.555 908.052 510.757 908.052ZM535.085 904.356L529.189 908.624L528.881 907.7H541.817V911H525.537V907.7C527.443 906.263 529.13 905.045 530.597 904.048C532.093 903.051 533.354 902.156 534.381 901.364C535.407 900.572 536.185 899.765 536.713 898.944C537.27 898.123 537.549 897.169 537.549 896.084C537.549 895.263 537.387 894.544 537.065 893.928C536.742 893.283 536.243 892.784 535.569 892.432C534.923 892.051 534.073 891.86 533.017 891.86C531.726 891.86 530.611 892.271 529.673 893.092C528.734 893.913 528.265 894.984 528.265 896.304H525.185C525.038 894.837 525.302 893.532 525.977 892.388C526.681 891.215 527.649 890.291 528.881 889.616C530.142 888.912 531.521 888.56 533.017 888.56C534.307 888.56 535.451 888.765 536.449 889.176C537.446 889.557 538.282 890.085 538.957 890.76C539.661 891.435 540.189 892.212 540.541 893.092C540.893 893.972 541.069 894.896 541.069 895.864C541.069 896.744 540.922 897.551 540.629 898.284C540.365 899.017 539.969 899.721 539.441 900.396C538.942 901.071 538.326 901.731 537.593 902.376C536.859 903.021 536.023 903.681 535.085 904.356ZM555.022 904.356L549.126 908.624L548.818 907.7H561.754V911H545.474V907.7C547.381 906.263 549.067 905.045 550.534 904.048C552.03 903.051 553.291 902.156 554.318 901.364C555.345 900.572 556.122 899.765 556.65 898.944C557.207 898.123 557.486 897.169 557.486 896.084C557.486 895.263 557.325 894.544 557.002 893.928C556.679 893.283 556.181 892.784 555.506 892.432C554.861 892.051 554.01 891.86 552.954 891.86C551.663 891.86 550.549 892.271 549.61 893.092C548.671 893.913 548.202 894.984 548.202 896.304H545.122C544.975 894.837 545.239 893.532 545.914 892.388C546.618 891.215 547.586 890.291 548.818 889.616C550.079 888.912 551.458 888.56 552.954 888.56C554.245 888.56 555.389 888.765 556.386 889.176C557.383 889.557 558.219 890.085 558.894 890.76C559.598 891.435 560.126 892.212 560.478 893.092C560.83 893.972 561.006 894.896 561.006 895.864C561.006 896.744 560.859 897.551 560.566 898.284C560.302 899.017 559.906 899.721 559.378 900.396C558.879 901.071 558.263 901.731 557.53 902.376C556.797 903.021 555.961 903.681 555.022 904.356Z" fill="white"/>
<path id="musique" d="M97.064 975.888H95.656L108.68 949.4H112.2V978H108.68V955.516L109.384 955.692L98.12 978H94.6L83.336 955.736L84.04 955.56V978H80.52V949.4H84.04L97.064 975.888ZM137.231 978H133.711V956H137.231V978ZM133.931 967.748L133.975 968.98C133.946 969.332 133.858 969.875 133.711 970.608C133.594 971.341 133.374 972.163 133.051 973.072C132.758 973.952 132.318 974.803 131.731 975.624C131.174 976.445 130.44 977.12 129.531 977.648C128.651 978.176 127.551 978.44 126.231 978.44C125.38 978.44 124.5 978.308 123.591 978.044C122.711 977.809 121.89 977.413 121.127 976.856C120.364 976.269 119.748 975.463 119.279 974.436C118.81 973.409 118.575 972.133 118.575 970.608V956H122.095V969.728C122.095 971.048 122.3 972.089 122.711 972.852C123.151 973.585 123.738 974.113 124.471 974.436C125.204 974.759 126.026 974.92 126.935 974.92C128.431 974.92 129.678 974.539 130.675 973.776C131.672 973.013 132.435 972.075 132.963 970.96C133.491 969.845 133.814 968.775 133.931 967.748ZM141.882 970.916H145.138C145.226 972.177 145.695 973.204 146.546 973.996C147.426 974.788 148.687 975.184 150.33 975.184C151.327 975.184 152.105 975.052 152.662 974.788C153.249 974.524 153.674 974.172 153.938 973.732C154.202 973.263 154.334 972.749 154.334 972.192C154.334 971.517 154.158 970.989 153.806 970.608C153.483 970.197 153.029 969.86 152.442 969.596C151.885 969.332 151.239 969.083 150.506 968.848C149.655 968.525 148.775 968.188 147.866 967.836C146.986 967.455 146.15 967.015 145.358 966.516C144.595 965.988 143.979 965.357 143.51 964.624C143.041 963.861 142.806 962.952 142.806 961.896C142.806 961.016 142.982 960.195 143.334 959.432C143.686 958.64 144.185 957.965 144.83 957.408C145.505 956.821 146.282 956.367 147.162 956.044C148.071 955.721 149.069 955.56 150.154 955.56C151.621 955.56 152.853 955.853 153.85 956.44C154.877 957.027 155.654 957.863 156.182 958.948C156.739 960.004 157.033 961.236 157.062 962.644H154.026C153.821 961.324 153.395 960.371 152.75 959.784C152.134 959.168 151.239 958.86 150.066 958.86C148.863 958.86 147.939 959.124 147.294 959.652C146.649 960.18 146.326 960.884 146.326 961.764C146.326 962.409 146.561 962.952 147.03 963.392C147.499 963.803 148.101 964.184 148.834 964.536C149.597 964.859 150.403 965.196 151.254 965.548C152.105 965.9 152.926 966.252 153.718 966.604C154.51 966.956 155.214 967.367 155.83 967.836C156.446 968.305 156.93 968.892 157.282 969.596C157.663 970.271 157.854 971.121 157.854 972.148C157.854 973.38 157.561 974.48 156.974 975.448C156.417 976.387 155.581 977.12 154.466 977.648C153.381 978.176 152.046 978.44 150.462 978.44C149.025 978.44 147.793 978.264 146.766 977.912C145.769 977.531 144.933 977.047 144.258 976.46C143.583 975.844 143.055 975.199 142.674 974.524C142.322 973.849 142.087 973.189 141.97 972.544C141.853 971.899 141.823 971.356 141.882 970.916ZM166.716 947.2V951.468H162.14V947.2H166.716ZM162.668 956H166.188V978H162.668V956ZM180.516 978.44C178.785 978.44 177.187 977.956 175.72 976.988C174.283 975.991 173.124 974.641 172.244 972.94C171.393 971.209 170.968 969.244 170.968 967.044C170.968 964.844 171.393 962.879 172.244 961.148C173.124 959.417 174.283 958.053 175.72 957.056C177.187 956.059 178.785 955.56 180.516 955.56C182.159 955.56 183.493 955.868 184.52 956.484C185.576 957.071 186.383 957.892 186.94 958.948C187.497 960.004 187.879 961.221 188.084 962.6C188.319 963.979 188.436 965.46 188.436 967.044C188.436 968.159 188.319 969.376 188.084 970.696C187.849 971.987 187.439 973.233 186.852 974.436C186.295 975.609 185.503 976.577 184.476 977.34C183.449 978.073 182.129 978.44 180.516 978.44ZM181.396 975.096C182.892 975.096 184.124 974.729 185.092 973.996C186.089 973.263 186.823 972.295 187.292 971.092C187.761 969.86 187.996 968.511 187.996 967.044C187.996 965.431 187.747 964.023 187.248 962.82C186.779 961.588 186.045 960.635 185.048 959.96C184.08 959.256 182.863 958.904 181.396 958.904C179.196 958.904 177.495 959.681 176.292 961.236C175.089 962.761 174.488 964.697 174.488 967.044C174.488 968.599 174.781 969.992 175.368 971.224C175.984 972.427 176.805 973.38 177.832 974.084C178.888 974.759 180.076 975.096 181.396 975.096ZM191.516 956V986.8H187.996V960.092V956H191.516ZM216.551 978H213.031V956H216.551V978ZM213.251 967.748L213.295 968.98C213.266 969.332 213.178 969.875 213.031 970.608C212.914 971.341 212.694 972.163 212.371 973.072C212.078 973.952 211.638 974.803 211.051 975.624C210.494 976.445 209.76 977.12 208.851 977.648C207.971 978.176 206.871 978.44 205.551 978.44C204.7 978.44 203.82 978.308 202.911 978.044C202.031 977.809 201.21 977.413 200.447 976.856C199.684 976.269 199.068 975.463 198.599 974.436C198.13 973.409 197.895 972.133 197.895 970.608V956H201.415V969.728C201.415 971.048 201.62 972.089 202.031 972.852C202.471 973.585 203.058 974.113 203.791 974.436C204.524 974.759 205.346 974.92 206.255 974.92C207.751 974.92 208.998 974.539 209.995 973.776C210.992 973.013 211.755 972.075 212.283 970.96C212.811 969.845 213.134 968.775 213.251 967.748ZM237.834 970.916H241.134C240.9 972.353 240.372 973.644 239.55 974.788C238.758 975.903 237.702 976.797 236.382 977.472C235.092 978.117 233.596 978.44 231.894 978.44C229.841 978.44 227.993 977.956 226.35 976.988C224.708 975.991 223.402 974.641 222.434 972.94C221.496 971.209 221.026 969.244 221.026 967.044C221.026 964.844 221.481 962.879 222.39 961.148C223.329 959.417 224.605 958.053 226.218 957.056C227.832 956.059 229.65 955.56 231.674 955.56C233.816 955.56 235.62 956.044 237.086 957.012C238.582 957.951 239.682 959.344 240.386 961.192C241.12 963.011 241.413 965.255 241.266 967.924H224.546C224.693 969.361 225.089 970.623 225.734 971.708C226.38 972.793 227.23 973.644 228.286 974.26C229.342 974.847 230.545 975.14 231.894 975.14C233.39 975.14 234.652 974.759 235.678 973.996C236.734 973.204 237.453 972.177 237.834 970.916ZM231.806 958.86C229.988 958.86 228.462 959.388 227.23 960.444C225.998 961.5 225.177 962.937 224.766 964.756H237.658C237.541 962.82 236.91 961.353 235.766 960.356C234.652 959.359 233.332 958.86 231.806 958.86ZM260.06 973.688V978H255.484V973.688H260.06ZM260.06 956.572V960.884H255.484V956.572H260.06ZM297.036 967V949.4H300.556V967C300.556 968.613 300.365 970.051 299.984 971.312C299.603 972.544 299.06 973.615 298.356 974.524C297.681 975.433 296.86 976.181 295.892 976.768C294.924 977.325 293.839 977.736 292.636 978C291.463 978.293 290.201 978.44 288.852 978.44C287.473 978.44 286.183 978.293 284.98 978C283.777 977.736 282.677 977.325 281.68 976.768C280.712 976.181 279.876 975.433 279.172 974.524C278.497 973.615 277.969 972.544 277.588 971.312C277.207 970.051 277.016 968.613 277.016 967V949.4H280.536V967C280.536 969.2 280.917 970.887 281.68 972.06C282.443 973.233 283.455 974.04 284.716 974.48C285.977 974.92 287.356 975.14 288.852 975.14C290.319 975.14 291.668 974.92 292.9 974.48C294.132 974.04 295.129 973.233 295.892 972.06C296.655 970.887 297.036 969.2 297.036 967ZM306.95 956H310.47V978H306.95V956ZM318.038 955.56C319.211 955.56 320.267 955.736 321.206 956.088C322.145 956.44 322.937 956.953 323.582 957.628C324.227 958.303 324.726 959.124 325.078 960.092C325.43 961.031 325.606 962.101 325.606 963.304V978H322.086V964.184C322.086 962.483 321.69 961.207 320.898 960.356C320.106 959.505 318.918 959.08 317.334 959.08C316.131 959.08 315.017 959.388 313.99 960.004C312.963 960.62 312.113 961.471 311.438 962.556C310.793 963.612 310.397 964.844 310.25 966.252L310.206 963.7C310.353 962.468 310.646 961.353 311.086 960.356C311.555 959.359 312.127 958.508 312.802 957.804C313.506 957.071 314.298 956.513 315.178 956.132C316.087 955.751 317.041 955.56 318.038 955.56ZM339.629 978.44C337.869 978.44 336.256 977.956 334.789 976.988C333.352 975.991 332.208 974.641 331.357 972.94C330.506 971.209 330.081 969.244 330.081 967.044C330.081 964.844 330.492 962.879 331.313 961.148C332.134 959.417 333.264 958.053 334.701 957.056C336.138 956.059 337.781 955.56 339.629 955.56C341.272 955.56 342.606 955.868 343.633 956.484C344.689 957.071 345.496 957.892 346.053 958.948C346.61 960.004 346.992 961.221 347.197 962.6C347.432 963.979 347.549 965.46 347.549 967.044C347.549 968.159 347.432 969.376 347.197 970.696C346.962 971.987 346.552 973.233 345.965 974.436C345.408 975.609 344.616 976.577 343.589 977.34C342.562 978.073 341.242 978.44 339.629 978.44ZM340.509 975.096C342.005 975.096 343.237 974.729 344.205 973.996C345.202 973.263 345.936 972.295 346.405 971.092C346.874 969.86 347.109 968.511 347.109 967.044C347.109 965.431 346.86 964.023 346.361 962.82C345.892 961.588 345.158 960.635 344.161 959.96C343.193 959.256 341.976 958.904 340.509 958.904C338.309 958.904 336.608 959.681 335.405 961.236C334.202 962.761 333.601 964.697 333.601 967.044C333.601 968.599 333.894 969.992 334.481 971.224C335.097 972.427 335.918 973.38 336.945 974.084C338.001 974.759 339.189 975.096 340.509 975.096ZM347.109 947.2H350.629V978H347.417C347.358 977.355 347.285 976.592 347.197 975.712C347.138 974.832 347.109 974.128 347.109 973.6V947.2ZM372.584 970.916H375.884C375.65 972.353 375.122 973.644 374.3 974.788C373.508 975.903 372.452 976.797 371.132 977.472C369.842 978.117 368.346 978.44 366.644 978.44C364.591 978.44 362.743 977.956 361.1 976.988C359.458 975.991 358.152 974.641 357.184 972.94C356.246 971.209 355.776 969.244 355.776 967.044C355.776 964.844 356.231 962.879 357.14 961.148C358.079 959.417 359.355 958.053 360.968 957.056C362.582 956.059 364.4 955.56 366.424 955.56C368.566 955.56 370.37 956.044 371.836 957.012C373.332 957.951 374.432 959.344 375.136 961.192C375.87 963.011 376.163 965.255 376.016 967.924H359.296C359.443 969.361 359.839 970.623 360.484 971.708C361.13 972.793 361.98 973.644 363.036 974.26C364.092 974.847 365.295 975.14 366.644 975.14C368.14 975.14 369.402 974.759 370.428 973.996C371.484 973.204 372.203 972.177 372.584 970.916ZM366.556 958.86C364.738 958.86 363.212 959.388 361.98 960.444C360.748 961.5 359.927 962.937 359.516 964.756H372.408C372.291 962.82 371.66 961.353 370.516 960.356C369.402 959.359 368.082 958.86 366.556 958.86ZM380.555 956H384.075V978H380.555V956ZM391.115 959.3C389.619 959.3 388.358 959.681 387.331 960.444C386.334 961.177 385.542 962.087 384.955 963.172C384.398 964.228 384.031 965.255 383.855 966.252L383.811 963.7C383.811 963.436 383.87 962.996 383.987 962.38C384.105 961.764 384.325 961.075 384.647 960.312C384.97 959.52 385.395 958.772 385.923 958.068C386.481 957.335 387.185 956.733 388.035 956.264C388.886 955.795 389.913 955.56 391.115 955.56V959.3ZM417.167 974.788L416.287 974.744L421.435 956H425.263L418.531 978H415.231L408.719 958.728H409.599L403.087 978H399.787L393.099 956H396.927L401.987 974.744L401.107 974.788L407.047 956H411.315L417.167 974.788ZM436.696 978.44C434.965 978.44 433.366 977.956 431.9 976.988C430.462 975.991 429.304 974.641 428.424 972.94C427.573 971.209 427.148 969.244 427.148 967.044C427.148 964.844 427.588 962.879 428.468 961.148C429.348 959.417 430.536 958.053 432.032 957.056C433.557 956.059 435.258 955.56 437.136 955.56C439.189 955.56 440.744 956.088 441.8 957.144C442.885 958.171 443.618 959.549 444 961.28C444.41 963.011 444.616 964.932 444.616 967.044C444.616 968.159 444.498 969.376 444.264 970.696C444.029 971.987 443.618 973.233 443.032 974.436C442.474 975.609 441.682 976.577 440.656 977.34C439.629 978.073 438.309 978.44 436.696 978.44ZM437.576 975.096C439.072 975.096 440.304 974.729 441.272 973.996C442.269 973.263 443.002 972.295 443.472 971.092C443.941 969.86 444.176 968.511 444.176 967.044C444.176 965.431 443.926 964.023 443.428 962.82C442.958 961.588 442.225 960.635 441.228 959.96C440.26 959.256 439.042 958.904 437.576 958.904C435.376 958.904 433.674 959.681 432.472 961.236C431.269 962.761 430.668 964.697 430.668 967.044C430.668 968.599 430.961 969.992 431.548 971.224C432.164 972.427 432.985 973.38 434.012 974.084C435.068 974.759 436.256 975.096 437.576 975.096ZM444.176 956H447.696V978H444.484C444.484 978 444.454 977.736 444.396 977.208C444.366 976.68 444.322 976.064 444.264 975.36C444.205 974.656 444.176 974.069 444.176 973.6V956ZM451.89 956H464.826V959.3H451.89V956ZM456.598 950.28H460.118V978H456.598V950.28ZM484.131 970.916H487.431C487.197 972.353 486.669 973.644 485.847 974.788C485.055 975.903 483.999 976.797 482.679 977.472C481.389 978.117 479.893 978.44 478.191 978.44C476.138 978.44 474.29 977.956 472.647 976.988C471.005 975.991 469.699 974.641 468.731 972.94C467.793 971.209 467.323 969.244 467.323 967.044C467.323 964.844 467.778 962.879 468.687 961.148C469.626 959.417 470.902 958.053 472.515 957.056C474.129 956.059 475.947 955.56 477.971 955.56C480.113 955.56 481.917 956.044 483.383 957.012C484.879 957.951 485.979 959.344 486.683 961.192C487.417 963.011 487.71 965.255 487.563 967.924H470.843C470.99 969.361 471.386 970.623 472.031 971.708C472.677 972.793 473.527 973.644 474.583 974.26C475.639 974.847 476.842 975.14 478.191 975.14C479.687 975.14 480.949 974.759 481.975 973.996C483.031 973.204 483.75 972.177 484.131 970.916ZM478.103 958.86C476.285 958.86 474.759 959.388 473.527 960.444C472.295 961.5 471.474 962.937 471.063 964.756H483.955C483.838 962.82 483.207 961.353 482.063 960.356C480.949 959.359 479.629 958.86 478.103 958.86ZM492.102 956H495.622V978H492.102V956ZM502.662 959.3C501.166 959.3 499.905 959.681 498.878 960.444C497.881 961.177 497.089 962.087 496.502 963.172C495.945 964.228 495.578 965.255 495.402 966.252L495.358 963.7C495.358 963.436 495.417 962.996 495.534 962.38C495.652 961.764 495.872 961.075 496.194 960.312C496.517 959.52 496.942 958.772 497.47 958.068C498.028 957.335 498.732 956.733 499.582 956.264C500.433 955.795 501.46 955.56 502.662 955.56V959.3ZM516.524 964.492H529.284V967.748H516.524V964.492ZM562.115 975.888H560.707L573.731 949.4H577.251V978H573.731V955.516L574.435 955.692L563.171 978H559.651L548.387 955.736L549.091 955.56V978H545.571V949.4H549.091L562.115 975.888ZM599.202 970.916H602.502C602.267 972.353 601.739 973.644 600.918 974.788C600.126 975.903 599.07 976.797 597.75 977.472C596.459 978.117 594.963 978.44 593.262 978.44C591.208 978.44 589.36 977.956 587.718 976.988C586.075 975.991 584.77 974.641 583.802 972.94C582.863 971.209 582.394 969.244 582.394 967.044C582.394 964.844 582.848 962.879 583.758 961.148C584.696 959.417 585.972 958.053 587.586 957.056C589.199 956.059 591.018 955.56 593.042 955.56C595.183 955.56 596.987 956.044 598.454 957.012C599.95 957.951 601.05 959.344 601.754 961.192C602.487 963.011 602.78 965.255 602.634 967.924H585.914C586.06 969.361 586.456 970.623 587.102 971.708C587.747 972.793 588.598 973.644 589.654 974.26C590.71 974.847 591.912 975.14 593.262 975.14C594.758 975.14 596.019 974.759 597.046 973.996C598.102 973.204 598.82 972.177 599.202 970.916ZM593.174 958.86C591.355 958.86 589.83 959.388 588.598 960.444C587.366 961.5 586.544 962.937 586.134 964.756H599.026C598.908 962.82 598.278 961.353 597.134 960.356C596.019 959.359 594.699 958.86 593.174 958.86ZM604.548 956H608.332L616.208 977.12L613.128 978L604.548 956ZM625.008 956L612.732 986.8H608.904L614.228 974.92L621.268 956H625.008ZM636.414 978.44C634.654 978.44 633.041 977.956 631.574 976.988C630.137 975.991 628.993 974.641 628.142 972.94C627.292 971.209 626.866 969.244 626.866 967.044C626.866 964.844 627.277 962.879 628.098 961.148C628.92 959.417 630.049 958.053 631.486 957.056C632.924 956.059 634.566 955.56 636.414 955.56C638.057 955.56 639.392 955.868 640.418 956.484C641.474 957.071 642.281 957.892 642.838 958.948C643.396 960.004 643.777 961.221 643.982 962.6C644.217 963.979 644.334 965.46 644.334 967.044C644.334 968.159 644.217 969.376 643.982 970.696C643.748 971.987 643.337 973.233 642.75 974.436C642.193 975.609 641.401 976.577 640.374 977.34C639.348 978.073 638.028 978.44 636.414 978.44ZM637.294 975.096C638.79 975.096 640.022 974.729 640.99 973.996C641.988 973.263 642.721 972.295 643.19 971.092C643.66 969.86 643.894 968.511 643.894 967.044C643.894 965.431 643.645 964.023 643.146 962.82C642.677 961.588 641.944 960.635 640.946 959.96C639.978 959.256 638.761 958.904 637.294 958.904C635.094 958.904 633.393 959.681 632.19 961.236C630.988 962.761 630.386 964.697 630.386 967.044C630.386 968.599 630.68 969.992 631.266 971.224C631.882 972.427 632.704 973.38 633.73 974.084C634.786 974.759 635.974 975.096 637.294 975.096ZM643.894 947.2H647.414V978H644.202C644.144 977.355 644.07 976.592 643.982 975.712C643.924 974.832 643.894 974.128 643.894 973.6V947.2ZM662.11 978.44C660.379 978.44 658.78 977.956 657.314 976.988C655.876 975.991 654.718 974.641 653.838 972.94C652.987 971.209 652.562 969.244 652.562 967.044C652.562 964.844 653.002 962.879 653.882 961.148C654.762 959.417 655.95 958.053 657.446 957.056C658.971 956.059 660.672 955.56 662.55 955.56C664.603 955.56 666.158 956.088 667.214 957.144C668.299 958.171 669.032 959.549 669.414 961.28C669.824 963.011 670.03 964.932 670.03 967.044C670.03 968.159 669.912 969.376 669.678 970.696C669.443 971.987 669.032 973.233 668.446 974.436C667.888 975.609 667.096 976.577 666.07 977.34C665.043 978.073 663.723 978.44 662.11 978.44ZM662.99 975.096C664.486 975.096 665.718 974.729 666.686 973.996C667.683 973.263 668.416 972.295 668.886 971.092C669.355 969.86 669.59 968.511 669.59 967.044C669.59 965.431 669.34 964.023 668.842 962.82C668.372 961.588 667.639 960.635 666.642 959.96C665.674 959.256 664.456 958.904 662.99 958.904C660.79 958.904 659.088 959.681 657.886 961.236C656.683 962.761 656.082 964.697 656.082 967.044C656.082 968.599 656.375 969.992 656.962 971.224C657.578 972.427 658.399 973.38 659.426 974.084C660.482 974.759 661.67 975.096 662.99 975.096ZM669.59 956H673.11V978H669.898C669.898 978 669.868 977.736 669.81 977.208C669.78 976.68 669.736 976.064 669.678 975.36C669.619 974.656 669.59 974.069 669.59 973.6V956ZM678.844 956H682.364V978H678.844V956ZM689.932 955.56C691.106 955.56 692.162 955.736 693.1 956.088C694.039 956.44 694.831 956.953 695.476 957.628C696.122 958.303 696.62 959.124 696.972 960.092C697.324 961.031 697.5 962.101 697.5 963.304V978H693.98V964.184C693.98 962.483 693.584 961.207 692.792 960.356C692 959.505 690.812 959.08 689.228 959.08C688.026 959.08 686.911 959.388 685.884 960.004C684.858 960.62 684.007 961.471 683.332 962.556C682.687 963.612 682.291 964.844 682.144 966.252L682.1 963.7C682.247 962.468 682.54 961.353 682.98 960.356C683.45 959.359 684.022 958.508 684.696 957.804C685.4 957.071 686.192 956.513 687.072 956.132C687.982 955.751 688.935 955.56 689.932 955.56Z" fill="white"/>
<path id="nom" d="M251.064 843.888H249.656L262.68 817.4H266.2V846H262.68V823.516L263.384 823.692L252.12 846H248.6L237.336 823.736L238.04 823.56V846H234.52V817.4H238.04L251.064 843.888ZM280.891 846.44C279.16 846.44 277.562 845.956 276.095 844.988C274.658 843.991 273.499 842.641 272.619 840.94C271.768 839.209 271.343 837.244 271.343 835.044C271.343 832.844 271.783 830.879 272.663 829.148C273.543 827.417 274.731 826.053 276.227 825.056C277.752 824.059 279.454 823.56 281.331 823.56C283.384 823.56 284.939 824.088 285.995 825.144C287.08 826.171 287.814 827.549 288.195 829.28C288.606 831.011 288.811 832.932 288.811 835.044C288.811 836.159 288.694 837.376 288.459 838.696C288.224 839.987 287.814 841.233 287.227 842.436C286.67 843.609 285.878 844.577 284.851 845.34C283.824 846.073 282.504 846.44 280.891 846.44ZM281.771 843.096C283.267 843.096 284.499 842.729 285.467 841.996C286.464 841.263 287.198 840.295 287.667 839.092C288.136 837.86 288.371 836.511 288.371 835.044C288.371 833.431 288.122 832.023 287.623 830.82C287.154 829.588 286.42 828.635 285.423 827.96C284.455 827.256 283.238 826.904 281.771 826.904C279.571 826.904 277.87 827.681 276.667 829.236C275.464 830.761 274.863 832.697 274.863 835.044C274.863 836.599 275.156 837.992 275.743 839.224C276.359 840.427 277.18 841.38 278.207 842.084C279.263 842.759 280.451 843.096 281.771 843.096ZM288.371 824H291.891V846H288.679C288.679 846 288.65 845.736 288.591 845.208C288.562 844.68 288.518 844.064 288.459 843.36C288.4 842.656 288.371 842.069 288.371 841.6V824ZM296.086 824H309.022V827.3H296.086V824ZM300.794 818.28H304.314V846H300.794V818.28ZM328.844 846V832.184C328.844 831.04 328.668 830.101 328.316 829.368C327.964 828.605 327.436 828.033 326.732 827.652C326.028 827.271 325.148 827.08 324.092 827.08C322.89 827.08 321.775 827.388 320.748 828.004C319.722 828.62 318.871 829.471 318.196 830.556C317.551 831.612 317.155 832.844 317.008 834.252L316.964 831.7C317.111 830.468 317.404 829.353 317.844 828.356C318.314 827.359 318.886 826.508 319.56 825.804C320.264 825.071 321.056 824.513 321.936 824.132C322.846 823.751 323.799 823.56 324.796 823.56C325.97 823.56 327.026 823.736 327.964 824.088C328.903 824.44 329.695 824.953 330.34 825.628C330.986 826.303 331.484 827.124 331.836 828.092C332.188 829.031 332.364 830.101 332.364 831.304V846H328.844ZM313.708 846V815.2H317.228V846H313.708ZM342.458 815.2V819.468H337.882V815.2H342.458ZM338.41 824H341.93V846H338.41V824ZM348.382 815.2H351.902V846H348.382V815.2ZM366.399 846.44C364.639 846.44 363.025 845.956 361.559 844.988C360.121 843.991 358.977 842.641 358.127 840.94C357.276 839.209 356.851 837.244 356.851 835.044C356.851 832.844 357.261 830.879 358.083 829.148C358.904 827.417 360.033 826.053 361.471 825.056C362.908 824.059 364.551 823.56 366.399 823.56C368.041 823.56 369.376 823.868 370.403 824.484C371.459 825.071 372.265 825.892 372.823 826.948C373.38 828.004 373.761 829.221 373.967 830.6C374.201 831.979 374.319 833.46 374.319 835.044C374.319 836.159 374.201 837.376 373.967 838.696C373.732 839.987 373.321 841.233 372.735 842.436C372.177 843.609 371.385 844.577 370.359 845.34C369.332 846.073 368.012 846.44 366.399 846.44ZM367.279 843.096C368.775 843.096 370.007 842.729 370.975 841.996C371.972 841.263 372.705 840.295 373.175 839.092C373.644 837.86 373.879 836.511 373.879 835.044C373.879 833.431 373.629 832.023 373.131 830.82C372.661 829.588 371.928 828.635 370.931 827.96C369.963 827.256 368.745 826.904 367.279 826.904C365.079 826.904 363.377 827.681 362.175 829.236C360.972 830.761 360.371 832.697 360.371 835.044C360.371 836.599 360.664 837.992 361.251 839.224C361.867 840.427 362.688 841.38 363.715 842.084C364.771 842.759 365.959 843.096 367.279 843.096ZM373.879 815.2H377.399V846H374.187C374.128 845.355 374.055 844.592 373.967 843.712C373.908 842.832 373.879 842.128 373.879 841.6V815.2ZM399.354 838.916H402.654C402.419 840.353 401.891 841.644 401.07 842.788C400.278 843.903 399.222 844.797 397.902 845.472C396.611 846.117 395.115 846.44 393.414 846.44C391.361 846.44 389.513 845.956 387.87 844.988C386.227 843.991 384.922 842.641 383.954 840.94C383.015 839.209 382.546 837.244 382.546 835.044C382.546 832.844 383.001 830.879 383.91 829.148C384.849 827.417 386.125 826.053 387.738 825.056C389.351 824.059 391.17 823.56 393.194 823.56C395.335 823.56 397.139 824.044 398.606 825.012C400.102 825.951 401.202 827.344 401.906 829.192C402.639 831.011 402.933 833.255 402.786 835.924H386.066C386.213 837.361 386.609 838.623 387.254 839.708C387.899 840.793 388.75 841.644 389.806 842.26C390.862 842.847 392.065 843.14 393.414 843.14C394.91 843.14 396.171 842.759 397.198 841.996C398.254 841.204 398.973 840.177 399.354 838.916ZM393.326 826.86C391.507 826.86 389.982 827.388 388.75 828.444C387.518 829.5 386.697 830.937 386.286 832.756H399.178C399.061 830.82 398.43 829.353 397.286 828.356C396.171 827.359 394.851 826.86 393.326 826.86ZM415.287 836.716H418.455C418.543 837.948 418.91 839.048 419.555 840.016C420.2 840.984 421.08 841.747 422.195 842.304C423.339 842.861 424.674 843.14 426.199 843.14C427.519 843.14 428.619 842.949 429.499 842.568C430.408 842.157 431.083 841.6 431.523 840.896C431.992 840.192 432.227 839.371 432.227 838.432C432.227 837.464 431.992 836.687 431.523 836.1C431.054 835.513 430.379 835.015 429.499 834.604C428.619 834.193 427.578 833.797 426.375 833.416C425.231 833.064 424.072 832.653 422.899 832.184C421.726 831.715 420.626 831.143 419.599 830.468C418.602 829.793 417.795 828.987 417.179 828.048C416.563 827.08 416.255 825.921 416.255 824.572C416.255 823.252 416.607 822.02 417.311 820.876C418.044 819.703 419.1 818.764 420.479 818.06C421.887 817.327 423.574 816.96 425.539 816.96C428.619 816.96 430.922 817.796 432.447 819.468C433.972 821.14 434.706 823.355 434.647 826.112H431.479C431.42 824.029 430.834 822.533 429.719 821.624C428.604 820.715 427.152 820.26 425.363 820.26C423.867 820.26 422.562 820.612 421.447 821.316C420.332 821.991 419.775 823.061 419.775 824.528C419.775 825.173 419.892 825.745 420.127 826.244C420.391 826.713 420.802 827.153 421.359 827.564C421.946 827.975 422.723 828.385 423.691 828.796C424.688 829.177 425.906 829.603 427.343 830.072C428.282 830.365 429.235 830.717 430.203 831.128C431.2 831.539 432.11 832.052 432.931 832.668C433.782 833.284 434.456 834.076 434.955 835.044C435.483 835.983 435.747 837.171 435.747 838.608C435.747 839.987 435.41 841.277 434.735 842.48C434.09 843.653 433.063 844.607 431.655 845.34C430.276 846.073 428.487 846.44 426.287 846.44C424.41 846.44 422.796 846.191 421.447 845.692C420.127 845.164 419.042 844.489 418.191 843.668C417.34 842.847 416.68 841.996 416.211 841.116C415.771 840.207 415.478 839.356 415.331 838.564C415.184 837.772 415.17 837.156 415.287 836.716ZM455.944 838.916H459.244C459.009 840.353 458.481 841.644 457.66 842.788C456.868 843.903 455.812 844.797 454.492 845.472C453.201 846.117 451.705 846.44 450.004 846.44C447.95 846.44 446.102 845.956 444.46 844.988C442.817 843.991 441.512 842.641 440.544 840.94C439.605 839.209 439.136 837.244 439.136 835.044C439.136 832.844 439.59 830.879 440.5 829.148C441.438 827.417 442.714 826.053 444.328 825.056C445.941 824.059 447.76 823.56 449.784 823.56C451.925 823.56 453.729 824.044 455.196 825.012C456.692 825.951 457.792 827.344 458.496 829.192C459.229 831.011 459.522 833.255 459.376 835.924H442.656C442.802 837.361 443.198 838.623 443.844 839.708C444.489 840.793 445.34 841.644 446.396 842.26C447.452 842.847 448.654 843.14 450.004 843.14C451.5 843.14 452.761 842.759 453.788 841.996C454.844 841.204 455.562 840.177 455.944 838.916ZM449.916 826.86C448.097 826.86 446.572 827.388 445.34 828.444C444.108 829.5 443.286 830.937 442.876 832.756H455.768C455.65 830.82 455.02 829.353 453.876 828.356C452.761 827.359 451.441 826.86 449.916 826.86ZM471.791 842.524C470.236 842.524 468.755 842.157 467.347 841.424C465.968 840.661 464.839 839.576 463.959 838.168C463.108 836.76 462.683 835.073 462.683 833.108C462.683 831.143 463.108 829.456 463.959 828.048C464.809 826.611 465.924 825.511 467.303 824.748C468.681 823.956 470.177 823.56 471.791 823.56C472.289 823.56 472.759 823.604 473.199 823.692C473.668 823.751 474.108 823.853 474.519 824H483.451V827.784C482.189 827.784 480.928 827.549 479.667 827.08C478.435 826.611 477.379 826.127 476.499 825.628L476.323 825.452C477.349 826.009 478.185 826.669 478.831 827.432C479.505 828.195 480.004 829.06 480.327 830.028C480.679 830.967 480.855 831.993 480.855 833.108C480.855 835.073 480.429 836.76 479.579 838.168C478.757 839.576 477.657 840.661 476.279 841.424C474.9 842.157 473.404 842.524 471.791 842.524ZM478.259 854.8V853.832C478.259 852.277 477.848 851.148 477.027 850.444C476.235 849.74 475.032 849.388 473.419 849.388H469.019C468.051 849.388 467.2 849.3 466.467 849.124C465.763 848.977 465.176 848.743 464.707 848.42C464.237 848.097 463.885 847.701 463.651 847.232C463.416 846.763 463.299 846.235 463.299 845.648C463.299 844.533 463.636 843.697 464.311 843.14C464.985 842.553 465.821 842.187 466.819 842.04C467.816 841.893 468.769 841.893 469.679 842.04L471.791 842.524C470.207 842.612 468.975 842.773 468.095 843.008C467.244 843.243 466.819 843.741 466.819 844.504C466.819 844.944 466.98 845.311 467.303 845.604C467.655 845.868 468.168 846 468.843 846H473.419C474.944 846 476.337 846.205 477.599 846.616C478.86 847.056 479.872 847.775 480.635 848.772C481.397 849.799 481.779 851.192 481.779 852.952V854.8H478.259ZM471.791 839.224C472.759 839.224 473.653 838.989 474.475 838.52C475.325 838.051 476.015 837.361 476.543 836.452C477.071 835.543 477.335 834.428 477.335 833.108C477.335 831.788 477.071 830.673 476.543 829.764C476.044 828.825 475.369 828.121 474.519 827.652C473.668 827.153 472.759 826.904 471.791 826.904C470.823 826.904 469.913 827.153 469.063 827.652C468.212 828.121 467.523 828.811 466.995 829.72C466.467 830.629 466.203 831.759 466.203 833.108C466.203 834.428 466.467 835.543 466.995 836.452C467.523 837.361 468.212 838.051 469.063 838.52C469.913 838.989 470.823 839.224 471.791 839.224ZM503.166 838.916H506.466C506.232 840.353 505.704 841.644 504.882 842.788C504.09 843.903 503.034 844.797 501.714 845.472C500.424 846.117 498.928 846.44 497.226 846.44C495.173 846.44 493.325 845.956 491.682 844.988C490.04 843.991 488.734 842.641 487.766 840.94C486.828 839.209 486.358 837.244 486.358 835.044C486.358 832.844 486.813 830.879 487.722 829.148C488.661 827.417 489.937 826.053 491.55 825.056C493.164 824.059 494.982 823.56 497.006 823.56C499.148 823.56 500.952 824.044 502.418 825.012C503.914 825.951 505.014 827.344 505.718 829.192C506.452 831.011 506.745 833.255 506.598 835.924H489.878C490.025 837.361 490.421 838.623 491.066 839.708C491.712 840.793 492.562 841.644 493.618 842.26C494.674 842.847 495.877 843.14 497.226 843.14C498.722 843.14 499.984 842.759 501.01 841.996C502.066 841.204 502.785 840.177 503.166 838.916ZM497.138 826.86C495.32 826.86 493.794 827.388 492.562 828.444C491.33 829.5 490.509 830.937 490.098 832.756H502.99C502.873 830.82 502.242 829.353 501.098 828.356C499.984 827.359 498.664 826.86 497.138 826.86ZM519.453 846.44C517.723 846.44 516.124 845.956 514.657 844.988C513.22 843.991 512.061 842.641 511.181 840.94C510.331 839.209 509.905 837.244 509.905 835.044C509.905 832.844 510.345 830.879 511.225 829.148C512.105 827.417 513.293 826.053 514.789 825.056C516.315 824.059 518.016 823.56 519.893 823.56C521.947 823.56 523.501 824.088 524.557 825.144C525.643 826.171 526.376 827.549 526.757 829.28C527.168 831.011 527.373 832.932 527.373 835.044C527.373 836.159 527.256 837.376 527.021 838.696C526.787 839.987 526.376 841.233 525.789 842.436C525.232 843.609 524.44 844.577 523.413 845.34C522.387 846.073 521.067 846.44 519.453 846.44ZM520.333 843.096C521.829 843.096 523.061 842.729 524.029 841.996C525.027 841.263 525.76 840.295 526.229 839.092C526.699 837.86 526.933 836.511 526.933 835.044C526.933 833.431 526.684 832.023 526.185 830.82C525.716 829.588 524.983 828.635 523.985 827.96C523.017 827.256 521.8 826.904 520.333 826.904C518.133 826.904 516.432 827.681 515.229 829.236C514.027 830.761 513.425 832.697 513.425 835.044C513.425 836.599 513.719 837.992 514.305 839.224C514.921 840.427 515.743 841.38 516.769 842.084C517.825 842.759 519.013 843.096 520.333 843.096ZM526.933 824H530.453V846H527.241C527.241 846 527.212 845.736 527.153 845.208C527.124 844.68 527.08 844.064 527.021 843.36C526.963 842.656 526.933 842.069 526.933 841.6V824ZM534.648 824H547.584V827.3H534.648V824ZM539.356 818.28H542.876V846H539.356V818.28Z" fill="white"/>
</g>
<g id="star_1">
<path d="M2293.16 -119.13L2159.96 -176.402L2206.99 -39.2464L2120.27 -155.448L2092.42 -13.1521L2075.42 -157.147L1980.15 -47.8388L2037.42 -181.044L1900.27 -134.012L2016.47 -220.734L1874.17 -248.582L2018.17 -265.585L1908.86 -360.849L2042.06 -303.577L1995.03 -440.733L2081.76 -324.531L2109.6 -466.827L2126.61 -322.832L2221.87 -432.14L2164.6 -298.935L2301.75 -345.967L2185.55 -259.244L2327.85 -231.397L2183.85 -214.394L2293.16 -119.13Z" fill="#F9FF74"/>
<path d="M2293.16 -119.13L2159.96 -176.402L2206.99 -39.2464L2120.27 -155.448L2092.42 -13.1521L2075.42 -157.147L1980.15 -47.8388L2037.42 -181.044L1900.27 -134.012L2016.47 -220.734L1874.17 -248.582L2018.17 -265.585L1908.86 -360.849L2042.06 -303.577L1995.03 -440.733L2081.76 -324.531L2109.6 -466.827L2126.61 -322.832L2221.87 -432.14L2164.6 -298.935L2301.75 -345.967L2185.55 -259.244L2327.85 -231.397L2183.85 -214.394L2293.16 -119.13Z" fill="#F9FF74"/>
<path d="M2293.16 -119.13L2159.96 -176.402L2206.99 -39.2464L2120.27 -155.448L2092.42 -13.1521L2075.42 -157.147L1980.15 -47.8388L2037.42 -181.044L1900.27 -134.012L2016.47 -220.734L1874.17 -248.582L2018.17 -265.585L1908.86 -360.849L2042.06 -303.577L1995.03 -440.733L2081.76 -324.531L2109.6 -466.827L2126.61 -322.832L2221.87 -432.14L2164.6 -298.935L2301.75 -345.967L2185.55 -259.244L2327.85 -231.397L2183.85 -214.394L2293.16 -119.13Z" fill="#FFCA10"/>
</g>
<defs>
<linearGradient id="paint0_linear_0_1" x1="472" y1="1490.55" x2="-3014.39" y2="-9938.65" gradientUnits="userSpaceOnUse">
<stop offset="0.151042" stop-color="#5FC5FF"/>
<stop offset="0.322917" stop-color="#B05CF1"/>
<stop offset="0.510417" stop-color="#FF8AF3"/>
<stop offset="0.666667" stop-color="#F4D291"/>
<stop offset="0.817708" stop-color="#E246FC"/>
<stop offset="1" stop-color="#FFE126"/>
</linearGradient>
<linearGradient id="paint1_linear_0_1" x1="472" y1="1490.55" x2="-3014.39" y2="-9938.65" gradientUnits="userSpaceOnUse">
<stop offset="0.151042" stop-color="#7361C4"/>
<stop offset="0.322917" stop-color="#5CDFF1"/>
<stop offset="0.510417" stop-color="#15FFF1"/>
<stop offset="0.723958" stop-color="#F491E3"/>
<stop offset="0.927083" stop-color="#FFF091"/>
</linearGradient>
<linearGradient id="paint2_linear_0_1" x1="472" y1="1490.55" x2="-3014.39" y2="-9938.65" gradientUnits="userSpaceOnUse">
<stop offset="0.151042" stop-color="#FF9FCD"/>
<stop offset="0.390625" stop-color="#FFF598"/>
<stop offset="0.510417" stop-color="#87F4E1"/>
<stop offset="0.619792" stop-color="#B0FAFF"/>
<stop offset="0.854167" stop-color="#FFCFE5"/>
<stop offset="1" stop-color="#FFE545"/>
</linearGradient>
<linearGradient id="paint3_linear_0_1" x1="472" y1="1490.55" x2="-3014.39" y2="-9938.65" gradientUnits="userSpaceOnUse">
<stop offset="0.0989583" stop-color="#CE42FF"/>
<stop offset="0.255208" stop-color="#FF6DB3"/>
<stop offset="0.453125" stop-color="#FFF598"/>
<stop offset="0.6875" stop-color="#8DF8FF"/>
<stop offset="0.854167" stop-color="#FF71B0"/>
<stop offset="1" stop-color="#FFE545"/>
</linearGradient>
<linearGradient id="paint4_linear_0_1" x1="472" y1="1490.55" x2="-3014.39" y2="-9938.65" gradientUnits="userSpaceOnUse">
<stop offset="0.0989583" stop-color="#FFDE89"/>
<stop offset="0.307292" stop-color="#FF6DB3"/>
<stop offset="0.494792" stop-color="#FF8AE5"/>
<stop offset="0.661458" stop-color="#77C6FF"/>
<stop offset="0.869792" stop-color="#FF6BB5"/>
<stop offset="1" stop-color="#FFAE64"/>
</linearGradient>
<linearGradient id="paint5_linear_0_1" x1="472" y1="1490.55" x2="-3014.39" y2="-9938.65" gradientUnits="userSpaceOnUse">
<stop offset="0.0989583" stop-color="#FC73EE"/>
<stop offset="0.296875" stop-color="#64005A"/>
<stop offset="0.520833" stop-color="#1159E6"/>
<stop offset="0.71875" stop-color="#77C6FF"/>
<stop offset="0.848958" stop-color="#FF3FD5"/>
<stop offset="1" stop-color="#FC73EE"/>
</linearGradient>
<linearGradient id="paint6_linear_0_1" x1="472" y1="1490.55" x2="-3014.39" y2="-9938.65" gradientUnits="userSpaceOnUse">
<stop offset="0.0989583" stop-color="#FE44B3"/>
<stop offset="0.296875" stop-color="#64005A"/>
<stop offset="0.520833" stop-color="#50B4EC"/>
<stop offset="0.6875" stop-color="#FF52D9"/>
<stop offset="0.875" stop-color="#FFD977"/>
<stop offset="0.979167" stop-color="#FF77D1"/>
</linearGradient>
<linearGradient id="paint7_linear_0_1" x1="472" y1="1490.55" x2="-3014.39" y2="-9938.65" gradientUnits="userSpaceOnUse">
<stop offset="0.0520833" stop-color="#FF9BE3"/>
<stop offset="0.234375" stop-color="#FFE34E"/>
<stop offset="0.395833" stop-color="#FFA0A0"/>
<stop offset="0.598958" stop-color="#CC8BFF"/>
<stop offset="0.833333" stop-color="#FF94C7"/>
<stop offset="1" stop-color="#FDFF94"/>
</linearGradient>
<linearGradient id="paint8_linear_0_1" x1="472" y1="1490.55" x2="-3014.39" y2="-9938.65" gradientUnits="userSpaceOnUse">
<stop offset="0.0520833" stop-color="#81F7FF"/>
<stop offset="0.234375" stop-color="#FF98D6"/>
<stop offset="0.359375" stop-color="#C807B4"/>
<stop offset="0.598958" stop-color="#CC8BFF"/>
<stop offset="0.791667" stop-color="#FF94C7"/>
<stop offset="0.921875" stop-color="#FF77B8"/>
</linearGradient>
<linearGradient id="paint9_linear_0_1" x1="472" y1="1490.55" x2="-3014.39" y2="-9938.65" gradientUnits="userSpaceOnUse">
<stop offset="0.0520833" stop-color="#FFD977"/>
<stop offset="0.234375" stop-color="#FF0099"/>
<stop offset="0.359375" stop-color="#64005A"/>
<stop offset="0.598958" stop-color="#50B4EC"/>
<stop offset="0.791667" stop-color="#FF52D9"/>
<stop offset="0.921875" stop-color="#FFD977"/>
</linearGradient>
<linearGradient id="paint10_linear_0_1" x1="1634.5" y1="24.0001" x2="129" y2="754" gradientUnits="userSpaceOnUse">
<stop stop-color="#0038FF" stop-opacity="0.22"/>
<stop offset="1" stop-color="#B6FBFF"/>
</linearGradient>
<linearGradient id="paint11_linear_0_1" x1="598.336" y1="-52.577" x2="598.336" y2="239.249" gradientUnits="userSpaceOnUse">
<stop stop-color="#FFC2EE"/>
<stop offset="1" stop-color="#FF00B8"/>
</linearGradient>
<linearGradient id="paint12_linear_0_1" x1="420.633" y1="225.721" x2="420.633" y2="517.547" gradientUnits="userSpaceOnUse">
<stop stop-color="#FFC2EE"/>
<stop offset="1" stop-color="#FF00B8"/>
</linearGradient>
<linearGradient id="paint13_linear_0_1" x1="1327.33" y1="-77.5879" x2="1327.33" y2="214.238" gradientUnits="userSpaceOnUse">
<stop stop-color="#FFC2EE"/>
<stop offset="1" stop-color="#FF00B8"/>
</linearGradient>
<linearGradient id="paint14_linear_0_1" x1="1532.21" y1="188.3" x2="1532.21" y2="480.126" gradientUnits="userSpaceOnUse">
<stop stop-color="#FFC2EE"/>
<stop offset="1" stop-color="#FF00B8"/>
</linearGradient>
<linearGradient id="paint15_linear_0_1" x1="1538.86" y1="521.952" x2="1538.86" y2="813.778" gradientUnits="userSpaceOnUse">
<stop stop-color="#FFC2EE"/>
<stop offset="1" stop-color="#FF00B8"/>
</linearGradient>
<linearGradient id="paint16_linear_0_1" x1="1358.97" y1="831.058" x2="1358.97" y2="1122.88" gradientUnits="userSpaceOnUse">
<stop stop-color="#FFC2EE"/>
<stop offset="1" stop-color="#FF00B8"/>
</linearGradient>
<linearGradient id="paint17_linear_0_1" x1="420.637" y1="546.724" x2="420.637" y2="838.55" gradientUnits="userSpaceOnUse">
<stop stop-color="#FFC2EE"/>
<stop offset="1" stop-color="#FF00B8"/>
</linearGradient>
<linearGradient id="paint18_linear_0_1" x1="611.349" y1="832.436" x2="611.349" y2="1124.26" gradientUnits="userSpaceOnUse">
<stop stop-color="#FFC2EE"/>
<stop offset="1" stop-color="#FF00B8"/>
</linearGradient>
<linearGradient id="paint19_linear_0_1" x1="-109" y1="56.5" x2="1122.83" y2="1822.5" gradientUnits="userSpaceOnUse">
<stop stop-color="#27D8FF"/>
<stop offset="0.870971" stop-color="#15FFF1"/>
</linearGradient>
<linearGradient id="paint20_linear_0_1" x1="348.06" y1="375.01" x2="627.231" y2="792.88" gradientUnits="userSpaceOnUse">
<stop stop-color="#FD3EF5" stop-opacity="0.09"/>
<stop offset="1" stop-color="#FDFF94"/>
</linearGradient>
<linearGradient id="paint21_linear_0_1" x1="794.504" y1="180.454" x2="1073.67" y2="598.324" gradientUnits="userSpaceOnUse">
<stop stop-color="#FD3EF5" stop-opacity="0.09"/>
<stop offset="1" stop-color="#FDFF94"/>
</linearGradient>
<linearGradient id="paint22_linear_0_1" x1="1210.55" y1="371.454" x2="1489.72" y2="789.324" gradientUnits="userSpaceOnUse">
<stop stop-color="#FD3EF5" stop-opacity="0.09"/>
<stop offset="1" stop-color="#FDFF94"/>
</linearGradient>
<linearGradient id="paint23_linear_0_1" x1="979.5" y1="39" x2="979.5" y2="1040" gradientUnits="userSpaceOnUse">
<stop stop-color="#F6FF8D"/>
<stop offset="1" stop-color="#A129FF" stop-opacity="0"/>
</linearGradient>
<linearGradient id="paint24_linear_0_1" x1="979.5" y1="201" x2="979.5" y2="870" gradientUnits="userSpaceOnUse">
<stop stop-color="#B694FF"/>
<stop offset="1" stop-color="#A86FA6"/>
</linearGradient>
<linearGradient id="paint25_linear_0_1" x1="773.059" y1="305.13" x2="1052.23" y2="723" gradientUnits="userSpaceOnUse">
<stop stop-color="#FD3EF5"/>
<stop offset="1" stop-color="#FDFF94"/>
</linearGradient>
<linearGradient id="paint26_linear_0_1" x1="927" y1="423" x2="927" y2="674" gradientUnits="userSpaceOnUse">
<stop stop-color="white"/>
<stop offset="1" stop-color="white" stop-opacity="0.33"/>
</linearGradient>
<linearGradient id="paint27_linear_0_1" x1="1479.5" y1="498" x2="1479.5" y2="749" gradientUnits="userSpaceOnUse">
<stop stop-color="white"/>
<stop offset="1" stop-color="white" stop-opacity="0.33"/>
</linearGradient>
<linearGradient id="paint28_linear_0_1" x1="497.5" y1="567" x2="497.5" y2="818" gradientUnits="userSpaceOnUse">
<stop stop-color="white"/>
<stop offset="1" stop-color="white" stop-opacity="0.33"/>
</linearGradient>
<linearGradient id="paint29_linear_0_1" x1="1437" y1="648" x2="1437" y2="423" gradientUnits="userSpaceOnUse">
<stop stop-color="white"/>
<stop offset="1" stop-color="white" stop-opacity="0.33"/>
</linearGradient>
<linearGradient id="paint30_linear_0_1" x1="465.912" y1="922" x2="971.483" y2="1233.53" gradientUnits="userSpaceOnUse">
<stop stop-color="white"/>
<stop offset="1" stop-color="white" stop-opacity="0.4"/>
</linearGradient>
<linearGradient id="paint31_linear_0_1" x1="591.751" y1="613.005" x2="640.001" y2="962.5" gradientUnits="userSpaceOnUse">
<stop stop-color="#5CDFF1"/>
<stop offset="1" stop-color="white" stop-opacity="0"/>
</linearGradient>
<linearGradient id="paint32_linear_0_1" x1="592.251" y1="591.555" x2="640.501" y2="941.05" gradientUnits="userSpaceOnUse">
<stop stop-color="white"/>
<stop offset="1" stop-color="white" stop-opacity="0"/>
</linearGradient>
<linearGradient id="paint33_linear_0_1" x1="353.428" y1="154.567" x2="353.428" y2="378.289" gradientUnits="userSpaceOnUse">
<stop stop-color="#FFC2EE"/>
<stop offset="1" stop-color="#00F0FF"/>
</linearGradient>
<linearGradient id="paint34_linear_0_1" x1="766.355" y1="260.494" x2="766.355" y2="484.216" gradientUnits="userSpaceOnUse">
<stop stop-color="#FFC2EE"/>
<stop offset="1" stop-color="#00F0FF"/>
</linearGradient>
<linearGradient id="paint35_linear_0_1" x1="376.608" y1="692.747" x2="376.608" y2="916.469" gradientUnits="userSpaceOnUse">
<stop stop-color="#FFC2EE"/>
<stop offset="1" stop-color="#00F0FF"/>
</linearGradient>
<linearGradient id="paint36_linear_0_1" x1="669.526" y1="708.665" x2="669.526" y2="932.387" gradientUnits="userSpaceOnUse">
<stop stop-color="#FFC2EE"/>
<stop offset="1" stop-color="#00F0FF"/>
</linearGradient>
<linearGradient id="paint37_linear_0_1" x1="1198.51" y1="749.646" x2="1198.51" y2="973.368" gradientUnits="userSpaceOnUse">
<stop stop-color="#FFC2EE"/>
<stop offset="1" stop-color="#00F0FF"/>
</linearGradient>
<linearGradient id="paint38_linear_0_1" x1="1641.35" y1="706.491" x2="1641.35" y2="930.213" gradientUnits="userSpaceOnUse">
<stop stop-color="#FFC2EE"/>
<stop offset="1" stop-color="#00F0FF"/>
</linearGradient>
<linearGradient id="paint39_linear_0_1" x1="1168.9" y1="105.039" x2="1168.9" y2="328.761" gradientUnits="userSpaceOnUse">
<stop stop-color="#FFC2EE"/>
<stop offset="1" stop-color="#00F0FF"/>
</linearGradient>
<linearGradient id="paint40_linear_0_1" x1="1584.47" y1="245.611" x2="1584.47" y2="469.333" gradientUnits="userSpaceOnUse">
<stop stop-color="#FFC2EE"/>
<stop offset="1" stop-color="#00F0FF"/>
</linearGradient>
<linearGradient id="paint41_linear_0_1" x1="601.37" y1="-22.2625" x2="547.403" y2="1076.76" gradientUnits="userSpaceOnUse">
<stop stop-color="#FFB6EF" stop-opacity="0.9"/>
<stop offset="0.515625" stop-color="#36E7FF" stop-opacity="0.83"/>
<stop offset="0.979167" stop-color="white" stop-opacity="0.78"/>
</linearGradient>
<linearGradient id="paint42_linear_0_1" x1="1616.37" y1="-51.1456" x2="1556.86" y2="1102.77" gradientUnits="userSpaceOnUse">
<stop stop-color="#FFB6EF" stop-opacity="0.9"/>
<stop offset="0.515625" stop-color="#36E7FF" stop-opacity="0.83"/>
<stop offset="0.979167" stop-color="white" stop-opacity="0.78"/>
</linearGradient>
<linearGradient id="paint43_linear_0_1" x1="1236.15" y1="-34.1103" x2="1079.84" y2="1435.58" gradientUnits="userSpaceOnUse">
<stop stop-color="#3DFFFF"/>
<stop offset="0.515625" stop-color="#FB4BFF" stop-opacity="0.67"/>
<stop offset="0.979167" stop-color="white" stop-opacity="0.65"/>
</linearGradient>
<linearGradient id="paint44_linear_0_1" x1="912.15" y1="3.97987" x2="755.624" y2="1474.7" gradientUnits="userSpaceOnUse">
<stop stop-color="#3DFFFF"/>
<stop offset="0.515625" stop-color="#FB4BFF" stop-opacity="0.67"/>
<stop offset="0.979167" stop-color="white" stop-opacity="0.65"/>
</linearGradient>
<linearGradient id="paint45_linear_0_1" x1="217.617" y1="67.4806" x2="110.166" y2="1157.97" gradientUnits="userSpaceOnUse">
<stop stop-color="#FF2CEA" stop-opacity="0.65"/>
<stop offset="0.515625" stop-color="white" stop-opacity="0.81"/>
<stop offset="0.979167" stop-color="#47FFF4" stop-opacity="0.57"/>
</linearGradient>
<linearGradient id="paint46_linear_0_1" x1="971.802" y1="155.802" x2="971.802" y2="979.802" gradientUnits="userSpaceOnUse">
<stop offset="0.015625" stop-color="white"/>
<stop offset="0.494792" stop-color="#FF89DE" stop-opacity="0.64"/>
<stop offset="1" stop-color="#051ADC" stop-opacity="0.42"/>
</linearGradient>
<linearGradient id="paint47_linear_0_1" x1="971.302" y1="263.803" x2="971.302" y2="870.803" gradientUnits="userSpaceOnUse">
<stop offset="0.015625" stop-color="white"/>
<stop offset="0.494792" stop-color="#FF89DE" stop-opacity="0.64"/>
<stop offset="1" stop-color="#051ADC" stop-opacity="0.42"/>
</linearGradient>
<linearGradient id="paint48_linear_0_1" x1="971.301" y1="354.803" x2="971.301" y2="779.803" gradientUnits="userSpaceOnUse">
<stop offset="0.015625" stop-color="white"/>
<stop offset="0.494792" stop-color="#FF89DE" stop-opacity="0.64"/>
<stop offset="1" stop-color="#051ADC" stop-opacity="0.42"/>
</linearGradient>
<linearGradient id="paint49_linear_0_1" x1="971.5" y1="-7.21057" x2="971.5" y2="1046.21" gradientUnits="userSpaceOnUse">
<stop offset="0.015625" stop-color="white"/>
<stop offset="0.494792" stop-color="#00F0FF" stop-opacity="0.64"/>
<stop offset="1" stop-color="#C241FF" stop-opacity="0.42"/>
</linearGradient>
<linearGradient id="paint50_linear_0_1" x1="970.86" y1="130.859" x2="970.86" y2="906.862" gradientUnits="userSpaceOnUse">
<stop offset="0.015625" stop-color="white"/>
<stop offset="0.494792" stop-color="#00F0FF" stop-opacity="0.64"/>
<stop offset="1" stop-color="#C241FF" stop-opacity="0.42"/>
</linearGradient>
<linearGradient id="paint51_linear_0_1" x1="970.859" y1="247.196" x2="970.859" y2="790.526" gradientUnits="userSpaceOnUse">
<stop offset="0.015625" stop-color="white"/>
<stop offset="0.494792" stop-color="#00F0FF" stop-opacity="0.64"/>
<stop offset="1" stop-color="#C241FF" stop-opacity="0.42"/>
</linearGradient>
<linearGradient id="paint52_linear_0_1" x1="360.5" y1="101.225" x2="360.5" y2="583.775" gradientUnits="userSpaceOnUse">
<stop offset="0.015625" stop-color="white"/>
<stop offset="0.494792" stop-color="#ED7EFF" stop-opacity="0.64"/>
<stop offset="1" stop-color="#CC00FF" stop-opacity="0.49"/>
</linearGradient>
<linearGradient id="paint53_linear_0_1" x1="361.392" y1="170.341" x2="361.392" y2="516.444" gradientUnits="userSpaceOnUse">
<stop offset="0.015625" stop-color="white"/>
<stop offset="0.494792" stop-color="#ED7EFF" stop-opacity="0.64"/>
<stop offset="1" stop-color="#CC00FF" stop-opacity="0.49"/>
</linearGradient>
<linearGradient id="paint54_linear_0_1" x1="1559.5" y1="87.9035" x2="1559.5" y2="523.096" gradientUnits="userSpaceOnUse">
<stop offset="0.015625" stop-color="white"/>
<stop offset="0.494792" stop-color="#9CF9FF" stop-opacity="0.64"/>
<stop offset="1" stop-color="#3549FF" stop-opacity="0.42"/>
</linearGradient>
<linearGradient id="paint55_linear_0_1" x1="1560.19" y1="150.125" x2="1560.19" y2="462.262" gradientUnits="userSpaceOnUse">
<stop offset="0.015625" stop-color="white"/>
<stop offset="0.494792" stop-color="#9CF9FF" stop-opacity="0.64"/>
<stop offset="1" stop-color="#3549FF" stop-opacity="0.42"/>
</linearGradient>
<linearGradient id="paint56_linear_0_1" x1="922.5" y1="440" x2="872.501" y2="706.5" gradientUnits="userSpaceOnUse">
<stop stop-color="white"/>
<stop offset="1" stop-color="white" stop-opacity="0"/>
</linearGradient>
<linearGradient id="paint57_linear_0_1" x1="996.5" y1="396.52" x2="996.5" y2="988.48" gradientUnits="userSpaceOnUse">
<stop offset="0.015625" stop-color="white"/>
<stop offset="0.494792" stop-color="#F092FF"/>
<stop offset="1" stop-color="#5451F7" stop-opacity="0.73"/>
</linearGradient>
<linearGradient id="paint58_linear_0_1" x1="997.596" y1="481.307" x2="997.596" y2="905.884" gradientUnits="userSpaceOnUse">
<stop offset="0.015625" stop-color="white"/>
<stop offset="0.494792" stop-color="#F092FF"/>
<stop offset="1" stop-color="#5451F7" stop-opacity="0.73"/>
</linearGradient>
<linearGradient id="paint59_linear_0_1" x1="592.019" y1="533.603" x2="615.483" y2="237.511" gradientUnits="userSpaceOnUse">
<stop stop-color="white" stop-opacity="0.88"/>
<stop offset="0.515625" stop-color="#FFED46" stop-opacity="0.58"/>
<stop offset="1" stop-color="#FFE600" stop-opacity="0"/>
</linearGradient>
<linearGradient id="paint60_linear_0_1" x1="979.381" y1="477.922" x2="1086.8" y2="25.6048" gradientUnits="userSpaceOnUse">
<stop stop-color="white" stop-opacity="0.92"/>
<stop offset="0.515625" stop-color="#EEFD40" stop-opacity="0.62"/>
<stop offset="1" stop-color="#EBFF00" stop-opacity="0"/>
</linearGradient>
<linearGradient id="paint61_linear_0_1" x1="1429.53" y1="545.044" x2="1768.81" y2="148.468" gradientUnits="userSpaceOnUse">
<stop stop-color="white" stop-opacity="0.88"/>
<stop offset="0.515625" stop-color="#FFEC45" stop-opacity="0.59"/>
<stop offset="1" stop-color="#FFE600" stop-opacity="0.01"/>
</linearGradient>
<linearGradient id="paint62_linear_0_1" x1="917" y1="1524.5" x2="562.673" y2="639.385" gradientUnits="userSpaceOnUse">
<stop stop-color="#00E0FF"/>
<stop offset="1" stop-color="#0500FF" stop-opacity="0"/>
</linearGradient>
<linearGradient id="paint63_linear_0_1" x1="870.499" y1="317.499" x2="742.5" y2="914" gradientUnits="userSpaceOnUse">
<stop stop-color="white"/>
<stop offset="1" stop-color="white" stop-opacity="0"/>
</linearGradient>
<linearGradient id="paint64_linear_0_1" x1="1028.5" y1="460" x2="1041" y2="768" gradientUnits="userSpaceOnUse">
<stop offset="0.0169911" stop-color="white"/>
<stop offset="1" stop-color="white" stop-opacity="0"/>
</linearGradient>
<linearGradient id="paint65_linear_0_1" x1="986" y1="375" x2="974" y2="786" gradientUnits="userSpaceOnUse">
<stop stop-color="white"/>
<stop offset="1" stop-color="white" stop-opacity="0"/>
</linearGradient>
<linearGradient id="paint66_linear_0_1" x1="1120" y1="739" x2="1351.5" y2="-35.4999" gradientUnits="userSpaceOnUse">
<stop stop-color="white"/>
<stop offset="1" stop-color="white" stop-opacity="0"/>
</linearGradient>
<linearGradient id="paint67_linear_0_1" x1="894.499" y1="220" x2="894.5" y2="1042" gradientUnits="userSpaceOnUse">
<stop stop-color="white"/>
<stop offset="1" stop-color="white" stop-opacity="0"/>
</linearGradient>
<linearGradient id="paint68_linear_0_1" x1="963.626" y1="1064.96" x2="963.626" y2="2073.75" gradientUnits="userSpaceOnUse">
<stop stop-color="white"/>
<stop offset="1" stop-color="white" stop-opacity="0"/>
</linearGradient>
<linearGradient id="paint69_linear_0_1" x1="1046.91" y1="1009.75" x2="1046.91" y2="2018.55" gradientUnits="userSpaceOnUse">
<stop stop-color="white"/>
<stop offset="1" stop-color="white" stop-opacity="0"/>
</linearGradient>
<linearGradient id="paint70_linear_0_1" x1="201.127" y1="966.733" x2="129.137" y2="802.505" gradientUnits="userSpaceOnUse">
<stop stop-color="white"/>
<stop offset="0.546875" stop-color="#FFED4F" stop-opacity="0.6"/>
<stop offset="1" stop-color="#FFE923" stop-opacity="0"/>
</linearGradient>
<linearGradient id="paint71_linear_0_1" x1="386.649" y1="746.123" x2="275.734" y2="550.173" gradientUnits="userSpaceOnUse">
<stop stop-color="white" stop-opacity="0.88"/>
<stop offset="0.536458" stop-color="#FBFF45" stop-opacity="0.62"/>
<stop offset="1" stop-color="#FAFF1E" stop-opacity="0"/>
</linearGradient>
<clipPath id="clip0_0_1">
<rect width="1920" height="1080" fill="white"/>
</clipPath>
</defs>
</svg>
