<svg width="1920" height="1080" viewBox="0 0 1920 1080" fill="none" xmlns="http://www.w3.org/2000/svg">
<rect width="1920" height="1080" fill="#E5E5E5"/>
<g id="svg3" clip-path="url(#clip0_0_1)">
<rect width="1920" height="1080" fill="white"/>
<path id="degrade" d="M1903 6427L-49.9999 6427L-49.9991 -2042L1903 -2042L1903 6427Z" fill="url(#paint0_linear_0_1)"/>
<circle id="rond1" cx="971" cy="546" r="618" fill="url(#paint1_linear_0_1)"/>
<path id="bleu" d="M-1292 1681C-1130.37 1516.33 -221.339 954.5 494.586 985C817.144 998.742 1150.7 1009.5 1364.13 858.5C1577.56 707.5 1944.61 551 2287.62 616.5C2562.03 668.9 2752.59 167.333 2866.93 -29.5L3183 -1038.5C2900.77 -860.167 2185.62 -397.761 2085.92 -357C1765.5 -226 1577.2 -423.155 1210.51 152.5C760.785 858.5 -1100.49 667 -1443.5 616.5C-1717.91 576.1 765.605 -305.333 907.5 -700.5" stroke="#00C2FF" stroke-opacity="0.61" stroke-width="1000" stroke-linecap="round" stroke-linejoin="round"/>
<path id="ligne2" d="M-1329 451.518C-1267.58 527.345 -1025.75 586.707 -633.966 595.506C-144.237 606.505 -240.38 440.018 367.524 424.02C975.428 408.021 926.355 585.007 1230.81 623.004C1535.26 661.001 1616.32 352.448 2367.5 549.01C2906.3 689.999 3193.39 626.004 3182.71 674" stroke="white" stroke-width="30" stroke-linecap="round"/>
<path id="ligne4" d="M-736 526.518C-675.678 602.345 -438.193 661.707 -53.4433 670.506C427.494 681.505 333.077 515.018 930.068 499.02C1527.06 483.021 1478.87 660.007 1777.85 698.004C2076.84 736.001 2156.45 427.448 2894.14 624.01C3423.27 764.999 3705.21 701.004 3694.72 749" stroke="white" stroke-width="30" stroke-linecap="round"/>
<path id="ligne3" d="M-2254 595.518C-2179.08 671.345 -1884.14 730.707 -1406.31 739.506C-809.02 750.505 -926.28 584.018 -184.857 568.02C556.565 552.021 496.714 729.007 868.036 767.004C1239.36 805.001 1338.22 496.448 2254.39 693.01C2911.53 833.999 3261.68 770.004 3248.65 818" stroke="white" stroke-width="30" stroke-linecap="round"/>
<path id="ligne1" d="M-368.789 645.98C-319.555 569.983 -496.581 516 -182.559 507.181C209.969 496.157 282.214 629.945 769.462 645.98C1256.71 662.014 1023.92 577.333 1565.76 577.332C2221.45 577.332 2203.45 336.784 2826.02 507.181C3243.43 621.427 3256.01 471.103 3247.45 423" stroke="white" stroke-width="30" stroke-linecap="round"/>
<path id="grosseligne" d="M-834.789 655.98C-785.555 579.983 -962.581 526 -648.559 517.181C-256.031 506.157 -183.786 639.945 303.462 655.98C790.711 672.014 557.923 587.333 1099.76 587.332C1755.45 587.332 1737.45 346.784 2360.02 517.181C2777.43 631.427 2790.01 481.103 2781.45 433" stroke="white" stroke-width="83" stroke-linecap="round"/>
<circle id="ro_ro1" cx="280.183" cy="163.183" r="111.861" transform="rotate(-178.143 280.183 163.183)" fill="url(#paint2_linear_0_1)"/>
<circle id="ro_ro2" cx="816.213" cy="307.212" r="111.861" transform="rotate(-174.904 816.213 307.212)" fill="url(#paint3_linear_0_1)"/>
<circle id="ro_ro5" cx="156.642" cy="887.641" r="111.861" transform="rotate(-4.67635 156.642 887.641)" fill="url(#paint4_linear_0_1)"/>
<circle id="ro_ro6" cx="580.527" cy="932.526" r="111.861" transform="rotate(1.38203 580.527 932.526)" fill="url(#paint5_linear_0_1)"/>
<circle id="ro_ro7" cx="1281.51" cy="858.506" r="111.861" transform="rotate(-34.4208 1281.51 858.506)" fill="url(#paint6_linear_0_1)"/>
<circle id="ro_ro8" cx="1763.14" cy="964.137" r="111.861" transform="rotate(-29.3789 1763.14 964.137)" fill="url(#paint7_linear_0_1)"/>
<circle id="ro_ro3" cx="1225.68" cy="180.681" r="111.861" transform="rotate(138.505 1225.68 180.681)" fill="url(#paint8_linear_0_1)"/>
<circle id="ro_ro4" cx="1736.47" cy="275.471" r="111.861" transform="rotate(-156.218 1736.47 275.471)" fill="url(#paint9_linear_0_1)"/>
<path id="shine" d="M100.301 855.691L129.388 777.275L57.5941 743.406L132.143 770.68L167.489 694.879L138.402 773.295L210.195 807.164L135.646 779.89L100.301 855.691Z" fill="url(#paint10_linear_0_1)"/>
<path id="shine_2" d="M1387.75 133.892L1337.95 201.086L1397.45 253.632L1333.47 206.651L1278.38 269.588L1328.18 202.394L1268.68 149.848L1332.67 196.829L1387.75 133.892Z" fill="url(#paint11_linear_0_1)"/>
<path id="shine_3" d="M1811.69 863.553L1738.41 857.589L1726.83 926.395L1732.18 856.826L1659.63 844.945L1732.9 850.908L1744.49 782.102L1739.14 851.671L1811.69 863.553Z" fill="url(#paint12_linear_0_1)"/>
</g>
<defs>
<linearGradient id="paint0_linear_0_1" x1="623.075" y1="5669.43" x2="-1800.21" y2="-4684.51" gradientUnits="userSpaceOnUse">
<stop stop-color="#FFD977" stop-opacity="0.81"/>
<stop offset="0.0885417" stop-color="#FF0099" stop-opacity="0.81"/>
<stop offset="0.203125" stop-color="#64005A"/>
<stop offset="0.328125" stop-color="#2C0064"/>
<stop offset="0.453125" stop-color="#0090F8"/>
<stop offset="0.588542" stop-color="#52FFF5"/>
<stop offset="0.703125" stop-color="#FF7BDA"/>
<stop offset="0.807292" stop-color="#B91D84"/>
<stop offset="0.942708" stop-color="#4016B7"/>
</linearGradient>
<linearGradient id="paint1_linear_0_1" x1="1634.5" y1="24.0001" x2="129" y2="754" gradientUnits="userSpaceOnUse">
<stop stop-color="#00F0FF"/>
<stop offset="1" stop-color="#FF00E5"/>
</linearGradient>
<linearGradient id="paint2_linear_0_1" x1="280.183" y1="51.322" x2="280.183" y2="275.044" gradientUnits="userSpaceOnUse">
<stop stop-color="#FFC2EE"/>
<stop offset="1" stop-color="#00F0FF"/>
</linearGradient>
<linearGradient id="paint3_linear_0_1" x1="816.213" y1="195.351" x2="816.213" y2="419.073" gradientUnits="userSpaceOnUse">
<stop stop-color="#FFC2EE"/>
<stop offset="1" stop-color="#00F0FF"/>
</linearGradient>
<linearGradient id="paint4_linear_0_1" x1="156.642" y1="775.78" x2="156.642" y2="999.502" gradientUnits="userSpaceOnUse">
<stop stop-color="#FFC2EE"/>
<stop offset="1" stop-color="#00F0FF"/>
</linearGradient>
<linearGradient id="paint5_linear_0_1" x1="580.527" y1="820.665" x2="580.527" y2="1044.39" gradientUnits="userSpaceOnUse">
<stop stop-color="#FFC2EE"/>
<stop offset="1" stop-color="#00F0FF"/>
</linearGradient>
<linearGradient id="paint6_linear_0_1" x1="1281.51" y1="746.645" x2="1281.51" y2="970.367" gradientUnits="userSpaceOnUse">
<stop stop-color="#FFC2EE"/>
<stop offset="1" stop-color="#00F0FF"/>
</linearGradient>
<linearGradient id="paint7_linear_0_1" x1="1763.14" y1="852.276" x2="1763.14" y2="1076" gradientUnits="userSpaceOnUse">
<stop stop-color="#FFC2EE"/>
<stop offset="1" stop-color="#00F0FF"/>
</linearGradient>
<linearGradient id="paint8_linear_0_1" x1="1225.68" y1="68.8201" x2="1225.68" y2="292.542" gradientUnits="userSpaceOnUse">
<stop stop-color="#FFC2EE"/>
<stop offset="1" stop-color="#00F0FF"/>
</linearGradient>
<linearGradient id="paint9_linear_0_1" x1="1736.47" y1="163.61" x2="1736.47" y2="387.332" gradientUnits="userSpaceOnUse">
<stop stop-color="#FFC2EE"/>
<stop offset="1" stop-color="#00F0FF"/>
</linearGradient>
<linearGradient id="paint10_linear_0_1" x1="100.301" y1="855.691" x2="244" y2="864.5" gradientUnits="userSpaceOnUse">
<stop stop-color="white"/>
<stop offset="1" stop-color="#FFE0F3" stop-opacity="0"/>
</linearGradient>
<linearGradient id="paint11_linear_0_1" x1="1387.75" y1="133.892" x2="1252.21" y2="85.3591" gradientUnits="userSpaceOnUse">
<stop stop-color="white"/>
<stop offset="1" stop-color="#FFE0F3" stop-opacity="0"/>
</linearGradient>
<linearGradient id="paint12_linear_0_1" x1="1811.69" y1="863.553" x2="1784.96" y2="739.86" gradientUnits="userSpaceOnUse">
<stop stop-color="white"/>
<stop offset="1" stop-color="#FFE0F3" stop-opacity="0"/>
</linearGradient>
<clipPath id="clip0_0_1">
<rect width="1920" height="1080" fill="white"/>
</clipPath>
</defs>
</svg>
