<svg width="235" height="196" viewBox="0 0 235 196" fill="none" xmlns="http://www.w3.org/2000/svg">
<path d="M113.249 10.138C114.537 6.65555 119.463 6.65555 120.751 10.138L138.239 57.3977C138.644 58.4926 139.507 59.3558 140.602 59.7609L187.862 77.2486C191.344 78.5372 191.344 83.4628 187.862 84.7514L140.602 102.239C139.507 102.644 138.644 103.507 138.239 104.602L120.751 151.862C119.463 155.344 114.537 155.344 113.249 151.862L95.7609 104.602C95.3558 103.507 94.4926 102.644 93.3977 102.239L46.138 84.7514C42.6555 83.4628 42.6556 78.5372 46.138 77.2486L93.3977 59.7609C94.4926 59.3558 95.3558 58.4926 95.7609 57.3977L113.249 10.138Z" fill="white"/>
<path d="M56.852 53.888C56.852 53.888 56.852 51.48 58.443 48.986H51.606L43.608 71.432L32.6 48.986H26.709C27.827 50.835 28.257 52.211 28.257 55.006V72.894C28.128 75.775 27.956 76.936 26.709 78.914H33.503C32.256 77.022 31.826 75.56 31.826 72.894V59.392L38.62 75.99C39.523 77.882 41.243 79.258 43.694 79.129L51.606 58.575V74.012C51.606 75.732 51.047 77.366 49.972 78.914H58.443C56.852 76.42 56.852 74.012 56.852 74.012V53.888ZM87.1008 78.914C84.5638 76.979 83.2308 72.722 81.8548 69.411L74.2008 48.427H69.4278C69.6428 49.115 69.7288 49.674 69.7288 50.319C69.7288 51.308 69.4708 52.383 68.8258 54.103L62.4188 72.894C61.3868 75.689 60.3548 77.108 58.6348 78.914H66.2028C65.6438 78.14 65.3858 77.409 65.3858 76.592C65.3858 75.603 65.7298 74.442 66.2028 72.894L66.9338 70.142H76.2648C76.2648 70.142 77.3828 72.507 78.1138 75.216C78.4148 76.549 78.0708 77.753 77.0388 78.914H87.1008ZM67.9228 67.261L71.4918 57.543L75.2328 67.304L67.9228 67.261ZM82.3205 48.943L84.4275 54.49L87.0505 52.469C87.6095 52.082 88.1685 51.867 88.8135 51.824H92.1245V74.055C92.1245 74.399 92.0815 77.108 90.4905 78.871H99.4775C97.8865 76.42 97.8865 74.012 97.8865 74.012V51.824H101.283C101.971 51.867 102.53 52.082 103.046 52.469L105.712 54.49L107.948 48.943H82.3205ZM130.145 53.845C130.145 53.845 130.145 51.437 131.736 48.943H123.222C124.727 50.62 124.856 53.114 124.856 53.716V62.402H115.052V53.845C115.052 53.845 115.052 51.437 116.643 48.943H108.172C109.72 50.749 109.763 53.458 109.763 53.802V74.055C109.763 74.399 109.72 77.108 108.172 78.914H116.643C115.052 76.42 115.052 74.012 115.052 74.012V65.283H124.856V74.141C124.856 74.743 124.727 77.194 123.222 78.914H131.736C130.145 76.42 130.145 74.012 130.145 74.012V53.845ZM139.995 53.845C139.995 53.845 139.995 51.437 141.586 48.943H133.115C134.663 50.749 134.706 53.415 134.706 53.845V74.055C134.706 74.442 134.663 77.108 133.115 78.914H141.586C139.995 76.42 139.995 74.012 139.995 74.012V53.845ZM142.941 78.914H162.85L160.657 73.324L158.034 75.388C157.518 75.775 156.916 75.99 156.271 76.033H149.821V53.845C149.821 53.845 149.821 51.437 151.412 48.943H142.941C144.489 50.749 144.532 53.415 144.532 53.802V74.055C144.532 74.442 144.489 77.108 142.941 78.914ZM174.45 48.943H163.098C164.646 50.749 164.689 53.415 164.689 53.802V74.055C164.689 74.442 164.646 77.108 163.098 78.914H172.687C172.687 78.914 187.092 78.871 187.092 62.359C187.092 48.943 174.45 48.943 174.45 48.943ZM171.655 76.033H170.451V51.867H172.429C172.429 51.867 181.158 51.867 181.158 63.348C181.158 75.388 173.332 76.033 171.655 76.033ZM203.942 75.388C203.426 75.775 202.867 75.99 202.222 76.033H195.772V65.283H200.158C200.158 65.283 202.566 65.283 205.06 66.874V60.768C203.254 62.316 200.588 62.359 200.201 62.402H195.772V51.824H202.222C202.867 51.867 203.426 52.082 203.942 52.469L206.608 54.533L208.758 48.943H188.419C189.967 50.749 190.01 53.415 190.01 53.802V74.055C190.01 74.442 189.967 77.108 188.419 78.914H208.758L206.522 73.195L203.942 75.388ZM61.7468 98.327C57.8768 95.489 53.9208 91.877 53.9208 90.415C53.9208 89.383 54.7378 89.125 55.9848 89.125C60.4138 89.125 63.7248 92.135 66.6058 94.457L69.0138 87.878C67.7238 86.717 65.1438 85.384 60.4568 85.384C53.4048 85.384 49.9218 89.34 49.9218 93.167C49.9218 96.865 52.9748 99.273 57.2748 102.627C61.7038 106.196 66.0468 109.808 66.0468 111.743C66.0468 112.603 65.3158 113.119 63.5958 113.119C58.6938 113.119 55.6408 110.238 53.7918 107.271L48.8898 112.517C51.4268 115.355 54.6518 116.473 59.7258 116.473C66.3908 116.473 70.8628 112.173 70.8628 108.389C70.8628 104.304 66.0038 101.466 61.7468 98.327ZM87.4346 112.388C86.9186 112.775 86.3596 112.99 85.7146 113.033H79.2646V102.283H83.6506C83.6506 102.283 86.0586 102.283 88.5526 103.874V97.768C86.7466 99.316 84.0806 99.359 83.6936 99.402H79.2646V88.824H85.7146C86.3596 88.867 86.9186 89.082 87.4346 89.469L90.1006 91.533L92.2506 85.943H71.9116C73.4596 87.749 73.5026 90.415 73.5026 90.802V111.055C73.5026 111.442 73.4596 114.108 71.9116 115.914H92.2506L90.0146 110.195L87.4346 112.388ZM107.858 102.24C109.535 104.906 109.535 107.314 109.535 107.314V113.162C109.32 113.162 109.277 113.162 109.062 113.162C101.752 113.162 99.0429 107.701 97.5379 102.24C96.7639 99.445 96.3769 96.779 96.3769 94.672C96.2909 91.361 97.2369 89.727 99.1289 89.727C105.192 89.727 107.901 91.619 109.535 94.629L114.136 88.953C111.814 86.459 108.503 85.384 104.891 85.384C97.6669 85.384 91.8619 89.512 91.8619 100.993C91.8619 112.431 97.6669 116.473 104.891 116.473C108.589 116.473 112.158 115.355 114.566 112.646V107.314C114.566 107.314 114.566 104.347 116.329 102.24H107.858ZM132.408 112.388C131.892 112.775 131.333 112.99 130.688 113.033H124.238V102.283H128.624C128.624 102.283 131.032 102.283 133.526 103.874V97.768C131.72 99.316 129.054 99.359 128.667 99.402H124.238V88.824H130.688C131.333 88.867 131.892 89.082 132.408 89.469L135.074 91.533L137.224 85.943H116.885C118.433 87.749 118.476 90.415 118.476 90.802V111.055C118.476 111.442 118.433 114.108 116.885 115.914H137.224L134.988 110.195L132.408 112.388ZM165.899 115.914C163.362 113.979 162.029 109.722 160.653 106.411L152.999 85.427H148.226C148.441 86.115 148.527 86.674 148.527 87.319C148.527 88.308 148.269 89.383 147.624 91.103L141.217 109.894C140.185 112.689 139.153 114.108 137.433 115.914H145.001C144.442 115.14 144.184 114.409 144.184 113.592C144.184 112.603 144.528 111.442 145.001 109.894L145.732 107.142H155.063C155.063 107.142 156.181 109.507 156.912 112.216C157.213 113.549 156.869 114.753 155.837 115.914H165.899ZM146.721 104.261L150.29 94.543L154.031 104.304L146.721 104.261ZM161.119 85.943L163.226 91.49L165.849 89.469C166.408 89.082 166.967 88.867 167.612 88.824H170.923V111.055C170.923 111.399 170.88 114.108 169.289 115.871H178.276C176.685 113.42 176.685 111.012 176.685 111.012V88.824H180.082C180.77 88.867 181.329 89.082 181.845 89.469L184.511 91.49L186.747 85.943H161.119Z" fill="black"/>
<path d="M56.852 53.888C56.852 53.888 56.852 51.48 58.443 48.986H51.606L43.608 71.432L32.6 48.986H26.709C27.827 50.835 28.257 52.211 28.257 55.006V72.894C28.128 75.775 27.956 76.936 26.709 78.914H33.503C32.256 77.022 31.826 75.56 31.826 72.894V59.392L38.62 75.99C39.523 77.882 41.243 79.258 43.694 79.129L51.606 58.575V74.012C51.606 75.732 51.047 77.366 49.972 78.914H58.443C56.852 76.42 56.852 74.012 56.852 74.012V53.888ZM87.1008 78.914C84.5638 76.979 83.2308 72.722 81.8548 69.411L74.2008 48.427H69.4278C69.6428 49.115 69.7288 49.674 69.7288 50.319C69.7288 51.308 69.4708 52.383 68.8258 54.103L62.4188 72.894C61.3868 75.689 60.3548 77.108 58.6348 78.914H66.2028C65.6438 78.14 65.3858 77.409 65.3858 76.592C65.3858 75.603 65.7298 74.442 66.2028 72.894L66.9338 70.142H76.2648C76.2648 70.142 77.3828 72.507 78.1138 75.216C78.4148 76.549 78.0708 77.753 77.0388 78.914H87.1008ZM67.9228 67.261L71.4918 57.543L75.2328 67.304L67.9228 67.261ZM82.3205 48.943L84.4275 54.49L87.0505 52.469C87.6095 52.082 88.1685 51.867 88.8135 51.824H92.1245V74.055C92.1245 74.399 92.0815 77.108 90.4905 78.871H99.4775C97.8865 76.42 97.8865 74.012 97.8865 74.012V51.824H101.283C101.971 51.867 102.53 52.082 103.046 52.469L105.712 54.49L107.948 48.943H82.3205ZM130.145 53.845C130.145 53.845 130.145 51.437 131.736 48.943H123.222C124.727 50.62 124.856 53.114 124.856 53.716V62.402H115.052V53.845C115.052 53.845 115.052 51.437 116.643 48.943H108.172C109.72 50.749 109.763 53.458 109.763 53.802V74.055C109.763 74.399 109.72 77.108 108.172 78.914H116.643C115.052 76.42 115.052 74.012 115.052 74.012V65.283H124.856V74.141C124.856 74.743 124.727 77.194 123.222 78.914H131.736C130.145 76.42 130.145 74.012 130.145 74.012V53.845ZM139.995 53.845C139.995 53.845 139.995 51.437 141.586 48.943H133.115C134.663 50.749 134.706 53.415 134.706 53.845V74.055C134.706 74.442 134.663 77.108 133.115 78.914H141.586C139.995 76.42 139.995 74.012 139.995 74.012V53.845ZM142.941 78.914H162.85L160.657 73.324L158.034 75.388C157.518 75.775 156.916 75.99 156.271 76.033H149.821V53.845C149.821 53.845 149.821 51.437 151.412 48.943H142.941C144.489 50.749 144.532 53.415 144.532 53.802V74.055C144.532 74.442 144.489 77.108 142.941 78.914ZM174.45 48.943H163.098C164.646 50.749 164.689 53.415 164.689 53.802V74.055C164.689 74.442 164.646 77.108 163.098 78.914H172.687C172.687 78.914 187.092 78.871 187.092 62.359C187.092 48.943 174.45 48.943 174.45 48.943ZM171.655 76.033H170.451V51.867H172.429C172.429 51.867 181.158 51.867 181.158 63.348C181.158 75.388 173.332 76.033 171.655 76.033ZM203.942 75.388C203.426 75.775 202.867 75.99 202.222 76.033H195.772V65.283H200.158C200.158 65.283 202.566 65.283 205.06 66.874V60.768C203.254 62.316 200.588 62.359 200.201 62.402H195.772V51.824H202.222C202.867 51.867 203.426 52.082 203.942 52.469L206.608 54.533L208.758 48.943H188.419C189.967 50.749 190.01 53.415 190.01 53.802V74.055C190.01 74.442 189.967 77.108 188.419 78.914H208.758L206.522 73.195L203.942 75.388ZM61.7468 98.327C57.8768 95.489 53.9208 91.877 53.9208 90.415C53.9208 89.383 54.7378 89.125 55.9848 89.125C60.4138 89.125 63.7248 92.135 66.6058 94.457L69.0138 87.878C67.7238 86.717 65.1438 85.384 60.4568 85.384C53.4048 85.384 49.9218 89.34 49.9218 93.167C49.9218 96.865 52.9748 99.273 57.2748 102.627C61.7038 106.196 66.0468 109.808 66.0468 111.743C66.0468 112.603 65.3158 113.119 63.5958 113.119C58.6938 113.119 55.6408 110.238 53.7918 107.271L48.8898 112.517C51.4268 115.355 54.6518 116.473 59.7258 116.473C66.3908 116.473 70.8628 112.173 70.8628 108.389C70.8628 104.304 66.0038 101.466 61.7468 98.327ZM87.4346 112.388C86.9186 112.775 86.3596 112.99 85.7146 113.033H79.2646V102.283H83.6506C83.6506 102.283 86.0586 102.283 88.5526 103.874V97.768C86.7466 99.316 84.0806 99.359 83.6936 99.402H79.2646V88.824H85.7146C86.3596 88.867 86.9186 89.082 87.4346 89.469L90.1006 91.533L92.2506 85.943H71.9116C73.4596 87.749 73.5026 90.415 73.5026 90.802V111.055C73.5026 111.442 73.4596 114.108 71.9116 115.914H92.2506L90.0146 110.195L87.4346 112.388ZM107.858 102.24C109.535 104.906 109.535 107.314 109.535 107.314V113.162C109.32 113.162 109.277 113.162 109.062 113.162C101.752 113.162 99.0429 107.701 97.5379 102.24C96.7639 99.445 96.3769 96.779 96.3769 94.672C96.2909 91.361 97.2369 89.727 99.1289 89.727C105.192 89.727 107.901 91.619 109.535 94.629L114.136 88.953C111.814 86.459 108.503 85.384 104.891 85.384C97.6669 85.384 91.8619 89.512 91.8619 100.993C91.8619 112.431 97.6669 116.473 104.891 116.473C108.589 116.473 112.158 115.355 114.566 112.646V107.314C114.566 107.314 114.566 104.347 116.329 102.24H107.858ZM132.408 112.388C131.892 112.775 131.333 112.99 130.688 113.033H124.238V102.283H128.624C128.624 102.283 131.032 102.283 133.526 103.874V97.768C131.72 99.316 129.054 99.359 128.667 99.402H124.238V88.824H130.688C131.333 88.867 131.892 89.082 132.408 89.469L135.074 91.533L137.224 85.943H116.885C118.433 87.749 118.476 90.415 118.476 90.802V111.055C118.476 111.442 118.433 114.108 116.885 115.914H137.224L134.988 110.195L132.408 112.388ZM165.899 115.914C163.362 113.979 162.029 109.722 160.653 106.411L152.999 85.427H148.226C148.441 86.115 148.527 86.674 148.527 87.319C148.527 88.308 148.269 89.383 147.624 91.103L141.217 109.894C140.185 112.689 139.153 114.108 137.433 115.914H145.001C144.442 115.14 144.184 114.409 144.184 113.592C144.184 112.603 144.528 111.442 145.001 109.894L145.732 107.142H155.063C155.063 107.142 156.181 109.507 156.912 112.216C157.213 113.549 156.869 114.753 155.837 115.914H165.899ZM146.721 104.261L150.29 94.543L154.031 104.304L146.721 104.261ZM161.119 85.943L163.226 91.49L165.849 89.469C166.408 89.082 166.967 88.867 167.612 88.824H170.923V111.055C170.923 111.399 170.88 114.108 169.289 115.871H178.276C176.685 113.42 176.685 111.012 176.685 111.012V88.824H180.082C180.77 88.867 181.329 89.082 181.845 89.469L184.511 91.49L186.747 85.943H161.119Z" fill="black"/>
</svg>
